<svg width="771" height="415" viewBox="0 0 771 415" fill="none" xmlns="http://www.w3.org/2000/svg">
<g filter="url(#filter0_d_813_15914)">
<rect x="8" y="3" width="755" height="398.018" rx="5" fill="white" shape-rendering="crispEdges"/>
<path d="M307.39 46.18C305.698 46.18 304.426 45.748 303.574 44.884C302.722 44.02 302.296 42.808 302.296 41.248V32.266H303.952V41.248C303.952 42.352 304.234 43.204 304.798 43.804C305.362 44.404 306.226 44.704 307.39 44.704C308.554 44.704 309.418 44.404 309.982 43.804C310.546 43.204 310.828 42.352 310.828 41.248V32.266H312.484V41.248C312.484 42.808 312.058 44.02 311.206 44.884C310.354 45.748 309.082 46.18 307.39 46.18ZM319.089 46.18C317.829 46.18 316.803 45.88 316.011 45.28C315.219 44.68 314.739 43.852 314.571 42.796H316.173C316.305 43.432 316.611 43.93 317.091 44.29C317.583 44.65 318.255 44.83 319.107 44.83C319.803 44.83 320.355 44.698 320.763 44.434C321.183 44.17 321.393 43.792 321.393 43.3C321.393 42.916 321.267 42.61 321.015 42.382C320.775 42.142 320.463 41.962 320.079 41.842C319.707 41.722 319.209 41.602 318.585 41.482C317.805 41.326 317.175 41.17 316.695 41.014C316.227 40.846 315.825 40.582 315.489 40.222C315.153 39.862 314.985 39.364 314.985 38.728C314.985 37.828 315.321 37.126 315.993 36.622C316.677 36.118 317.547 35.866 318.603 35.866C319.683 35.866 320.583 36.148 321.303 36.712C322.023 37.276 322.467 38.05 322.635 39.034H321.213C321.069 38.422 320.769 37.966 320.313 37.666C319.857 37.366 319.287 37.216 318.603 37.216C317.943 37.216 317.427 37.342 317.055 37.594C316.695 37.834 316.515 38.17 316.515 38.602C316.515 38.938 316.629 39.202 316.857 39.394C317.085 39.586 317.367 39.736 317.703 39.844C318.039 39.94 318.513 40.048 319.125 40.168C319.929 40.324 320.583 40.492 321.087 40.672C321.591 40.84 322.023 41.122 322.383 41.518C322.743 41.902 322.923 42.442 322.923 43.138C322.923 44.074 322.587 44.818 321.915 45.37C321.243 45.91 320.301 46.18 319.089 46.18ZM329.522 46.18C328.586 46.18 327.746 45.958 327.002 45.514C326.27 45.07 325.7 44.458 325.292 43.678C324.884 42.898 324.68 42.022 324.68 41.05C324.68 40.126 324.872 39.274 325.256 38.494C325.64 37.702 326.192 37.066 326.912 36.586C327.644 36.106 328.502 35.866 329.486 35.866C330.338 35.866 331.13 36.058 331.862 36.442C332.594 36.826 333.182 37.39 333.626 38.134C334.07 38.866 334.292 39.748 334.292 40.78V41.32H327.182C327.098 41.32 326.93 41.32 326.678 41.32C326.438 41.32 326.216 41.308 326.012 41.284L325.958 41.572C326.066 41.596 326.138 41.638 326.174 41.698C326.222 41.746 326.258 41.836 326.282 41.968C326.318 42.088 326.354 42.202 326.39 42.31C326.642 43.078 327.044 43.69 327.596 44.146C328.16 44.602 328.796 44.83 329.504 44.83C330.224 44.83 330.842 44.638 331.358 44.254C331.874 43.87 332.246 43.384 332.474 42.796H334.112C333.788 43.804 333.236 44.62 332.456 45.244C331.676 45.868 330.698 46.18 329.522 46.18ZM326.318 40.312C326.45 40.192 326.582 40.108 326.714 40.06C326.858 40 327.032 39.97 327.236 39.97H331.7C331.928 39.97 332.12 40 332.276 40.06C332.432 40.108 332.582 40.192 332.726 40.312L332.924 40.096C332.804 40.012 332.726 39.94 332.69 39.88C332.666 39.808 332.642 39.718 332.618 39.61C332.582 39.394 332.522 39.19 332.438 38.998C332.186 38.434 331.796 37.996 331.268 37.684C330.752 37.372 330.17 37.216 329.522 37.216C328.862 37.216 328.28 37.372 327.776 37.684C327.284 37.996 326.9 38.434 326.624 38.998C326.516 39.226 326.45 39.43 326.426 39.61C326.414 39.718 326.39 39.802 326.354 39.862C326.318 39.922 326.24 40 326.12 40.096L326.318 40.312ZM336.415 46V36.046H337.945V36.694C337.945 36.862 337.927 37.006 337.891 37.126C337.867 37.234 337.813 37.342 337.729 37.45L337.981 37.612C338.389 37 338.839 36.556 339.331 36.28C339.835 36.004 340.459 35.866 341.203 35.866H341.275V37.396H340.753C339.949 37.396 339.307 37.636 338.827 38.116C338.239 38.68 337.945 39.562 337.945 40.762V46H336.415ZM346.968 46.18C345.708 46.18 344.682 45.88 343.89 45.28C343.098 44.68 342.618 43.852 342.45 42.796H344.052C344.184 43.432 344.49 43.93 344.97 44.29C345.462 44.65 346.134 44.83 346.986 44.83C347.682 44.83 348.234 44.698 348.642 44.434C349.062 44.17 349.272 43.792 349.272 43.3C349.272 42.916 349.146 42.61 348.894 42.382C348.654 42.142 348.342 41.962 347.958 41.842C347.586 41.722 347.088 41.602 346.464 41.482C345.684 41.326 345.054 41.17 344.574 41.014C344.106 40.846 343.704 40.582 343.368 40.222C343.032 39.862 342.864 39.364 342.864 38.728C342.864 37.828 343.2 37.126 343.872 36.622C344.556 36.118 345.426 35.866 346.482 35.866C347.562 35.866 348.462 36.148 349.182 36.712C349.902 37.276 350.346 38.05 350.514 39.034H349.092C348.948 38.422 348.648 37.966 348.192 37.666C347.736 37.366 347.166 37.216 346.482 37.216C345.822 37.216 345.306 37.342 344.934 37.594C344.574 37.834 344.394 38.17 344.394 38.602C344.394 38.938 344.508 39.202 344.736 39.394C344.964 39.586 345.246 39.736 345.582 39.844C345.918 39.94 346.392 40.048 347.004 40.168C347.808 40.324 348.462 40.492 348.966 40.672C349.47 40.84 349.902 41.122 350.262 41.518C350.622 41.902 350.802 42.442 350.802 43.138C350.802 44.074 350.466 44.818 349.794 45.37C349.122 45.91 348.18 46.18 346.968 46.18ZM362.824 35.866C363.7 35.866 364.474 36.082 365.146 36.514C365.818 36.946 366.334 37.552 366.694 38.332C367.066 39.112 367.252 40.006 367.252 41.014C367.252 42.022 367.066 42.922 366.694 43.714C366.334 44.494 365.818 45.1 365.146 45.532C364.486 45.964 363.712 46.18 362.824 46.18C362.092 46.18 361.486 46.048 361.006 45.784C360.538 45.52 360.07 45.07 359.602 44.434L359.35 44.596C359.434 44.704 359.488 44.818 359.512 44.938C359.548 45.046 359.566 45.184 359.566 45.352V49.78H358.036V36.046H359.566V36.694C359.566 36.862 359.548 37.006 359.512 37.126C359.488 37.234 359.434 37.342 359.35 37.45L359.602 37.612C360.07 36.976 360.538 36.526 361.006 36.262C361.486 35.998 362.092 35.866 362.824 35.866ZM362.68 37.216C362.068 37.216 361.522 37.378 361.042 37.702C360.562 38.026 360.184 38.482 359.908 39.07C359.644 39.646 359.512 40.294 359.512 41.014C359.512 41.746 359.644 42.4 359.908 42.976C360.184 43.552 360.562 44.008 361.042 44.344C361.522 44.668 362.068 44.83 362.68 44.83C363.292 44.83 363.826 44.668 364.282 44.344C364.75 44.008 365.104 43.552 365.344 42.976C365.596 42.4 365.722 41.746 365.722 41.014C365.722 40.294 365.596 39.646 365.344 39.07C365.104 38.494 364.75 38.044 364.282 37.72C363.826 37.384 363.292 37.216 362.68 37.216ZM373.854 46.18C372.918 46.18 372.078 45.958 371.334 45.514C370.602 45.07 370.032 44.458 369.624 43.678C369.216 42.898 369.012 42.022 369.012 41.05C369.012 40.126 369.204 39.274 369.588 38.494C369.972 37.702 370.524 37.066 371.244 36.586C371.976 36.106 372.834 35.866 373.818 35.866C374.67 35.866 375.462 36.058 376.194 36.442C376.926 36.826 377.514 37.39 377.958 38.134C378.402 38.866 378.624 39.748 378.624 40.78V41.32H371.514C371.43 41.32 371.262 41.32 371.01 41.32C370.77 41.32 370.548 41.308 370.344 41.284L370.29 41.572C370.398 41.596 370.47 41.638 370.506 41.698C370.554 41.746 370.59 41.836 370.614 41.968C370.65 42.088 370.686 42.202 370.722 42.31C370.974 43.078 371.376 43.69 371.928 44.146C372.492 44.602 373.128 44.83 373.836 44.83C374.556 44.83 375.174 44.638 375.69 44.254C376.206 43.87 376.578 43.384 376.806 42.796H378.444C378.12 43.804 377.568 44.62 376.788 45.244C376.008 45.868 375.03 46.18 373.854 46.18ZM370.65 40.312C370.782 40.192 370.914 40.108 371.046 40.06C371.19 40 371.364 39.97 371.568 39.97H376.032C376.26 39.97 376.452 40 376.608 40.06C376.764 40.108 376.914 40.192 377.058 40.312L377.256 40.096C377.136 40.012 377.058 39.94 377.022 39.88C376.998 39.808 376.974 39.718 376.95 39.61C376.914 39.394 376.854 39.19 376.77 38.998C376.518 38.434 376.128 37.996 375.6 37.684C375.084 37.372 374.502 37.216 373.854 37.216C373.194 37.216 372.612 37.372 372.108 37.684C371.616 37.996 371.232 38.434 370.956 38.998C370.848 39.226 370.782 39.43 370.758 39.61C370.746 39.718 370.722 39.802 370.686 39.862C370.65 39.922 370.572 40 370.452 40.096L370.65 40.312ZM380.747 46V36.046H382.277V36.694C382.277 36.862 382.259 37.006 382.223 37.126C382.199 37.234 382.145 37.342 382.061 37.45L382.313 37.612C382.721 37 383.171 36.556 383.663 36.28C384.167 36.004 384.791 35.866 385.535 35.866H385.607V37.396H385.085C384.281 37.396 383.639 37.636 383.159 38.116C382.571 38.68 382.277 39.562 382.277 40.762V46H380.747ZM388.132 46V37.396H386.476V36.046H388.132V34.966C388.132 34.078 388.348 33.406 388.78 32.95C389.212 32.494 389.854 32.266 390.706 32.266H391.984V33.616H391.048C390.568 33.616 390.214 33.742 389.986 33.994C389.77 34.246 389.662 34.636 389.662 35.164C389.662 35.32 389.65 35.464 389.626 35.596C389.614 35.716 389.566 35.866 389.482 36.046L389.662 36.226C389.842 36.142 389.986 36.094 390.094 36.082C390.214 36.058 390.346 36.046 390.49 36.046H391.984V37.396H389.662V46H388.132ZM397.726 46.18C396.79 46.18 395.95 45.958 395.206 45.514C394.474 45.07 393.898 44.452 393.478 43.66C393.07 42.868 392.866 41.974 392.866 40.978C392.866 40.006 393.07 39.13 393.478 38.35C393.898 37.57 394.474 36.964 395.206 36.532C395.95 36.088 396.79 35.866 397.726 35.866C398.662 35.866 399.502 36.088 400.246 36.532C400.99 36.964 401.572 37.57 401.992 38.35C402.412 39.13 402.622 40.006 402.622 40.978C402.622 41.974 402.412 42.868 401.992 43.66C401.584 44.44 401.008 45.058 400.264 45.514C399.52 45.958 398.674 46.18 397.726 46.18ZM397.726 44.83C398.35 44.83 398.914 44.662 399.418 44.326C399.934 43.99 400.336 43.534 400.624 42.958C400.924 42.37 401.074 41.71 401.074 40.978C401.074 40.282 400.93 39.646 400.642 39.07C400.354 38.494 399.952 38.044 399.436 37.72C398.932 37.384 398.362 37.216 397.726 37.216C397.102 37.216 396.532 37.378 396.016 37.702C395.512 38.026 395.116 38.476 394.828 39.052C394.54 39.628 394.396 40.27 394.396 40.978C394.396 41.71 394.54 42.37 394.828 42.958C395.116 43.546 395.512 44.008 396.016 44.344C396.532 44.668 397.102 44.83 397.726 44.83ZM404.776 46V36.046H406.306V36.694C406.306 36.862 406.288 37.006 406.252 37.126C406.228 37.234 406.174 37.342 406.09 37.45L406.342 37.612C406.75 37 407.2 36.556 407.692 36.28C408.196 36.004 408.82 35.866 409.564 35.866H409.636V37.396H409.114C408.31 37.396 407.668 37.636 407.188 38.116C406.6 38.68 406.306 39.562 406.306 40.762V46H404.776ZM411.315 46V36.046H412.845V36.694C412.845 36.862 412.827 37.006 412.791 37.126C412.767 37.234 412.713 37.342 412.629 37.45L412.881 37.612C413.337 36.988 413.787 36.544 414.231 36.28C414.675 36.004 415.197 35.866 415.797 35.866C416.481 35.866 417.069 36.028 417.561 36.352C418.053 36.664 418.341 37.114 418.425 37.702H418.659C419.199 36.478 420.213 35.866 421.701 35.866C422.805 35.866 423.633 36.184 424.185 36.82C424.737 37.444 425.013 38.344 425.013 39.52V46H423.483V39.88C423.483 39.028 423.303 38.374 422.943 37.918C422.595 37.45 422.103 37.216 421.467 37.216C420.807 37.216 420.267 37.438 419.847 37.882C419.511 38.242 419.271 38.71 419.127 39.286C418.995 39.862 418.929 40.6 418.929 41.5V46H417.399V39.88C417.399 39.04 417.213 38.386 416.841 37.918C416.481 37.45 415.989 37.216 415.365 37.216C414.705 37.216 414.165 37.456 413.745 37.936C413.445 38.272 413.217 38.722 413.061 39.286C412.917 39.838 412.845 40.576 412.845 41.5V46H411.315ZM430.331 46.18C429.335 46.18 428.543 45.928 427.955 45.424C427.379 44.92 427.091 44.23 427.091 43.354C427.091 42.49 427.415 41.806 428.063 41.302C428.591 40.882 429.353 40.57 430.349 40.366L433.895 39.682C433.907 38.914 433.703 38.32 433.283 37.9C432.827 37.444 432.215 37.216 431.447 37.216C430.835 37.216 430.301 37.384 429.845 37.72C429.401 38.044 429.119 38.482 428.999 39.034H427.469C427.637 38.038 428.093 37.264 428.837 36.712C429.593 36.148 430.469 35.866 431.465 35.866C432.053 35.866 432.599 35.956 433.103 36.136C433.607 36.304 434.033 36.556 434.381 36.892C434.837 37.324 435.125 37.822 435.245 38.386C435.365 38.95 435.425 39.532 435.425 40.132V46H433.895V45.532C433.895 45.232 433.955 44.89 434.075 44.506L433.823 44.398C433.499 44.914 433.121 45.316 432.689 45.604C432.389 45.808 432.047 45.952 431.663 46.036C431.291 46.132 430.847 46.18 430.331 46.18ZM430.511 44.83C431.087 44.83 431.615 44.716 432.095 44.488C432.683 44.188 433.115 43.786 433.391 43.282C433.595 42.922 433.727 42.58 433.787 42.256C433.859 41.932 433.901 41.734 433.913 41.662C433.949 41.482 433.997 41.35 434.057 41.266C434.117 41.182 434.207 41.134 434.327 41.122L434.273 40.834L431.951 41.32L430.673 41.572C429.929 41.716 429.383 41.95 429.035 42.274C428.759 42.55 428.621 42.898 428.621 43.318C428.621 43.774 428.789 44.14 429.125 44.416C429.473 44.692 429.935 44.83 430.511 44.83ZM437.876 46V36.046H439.406V36.694C439.406 36.862 439.388 37.006 439.352 37.126C439.328 37.234 439.274 37.342 439.19 37.45L439.442 37.612C439.898 36.988 440.348 36.544 440.792 36.28C441.236 36.004 441.758 35.866 442.358 35.866C443.762 35.866 444.74 36.388 445.292 37.432C445.496 37.828 445.622 38.236 445.67 38.656C445.73 39.064 445.76 39.514 445.76 40.006V46H444.23V40.006C444.23 38.95 444.038 38.206 443.654 37.774C443.318 37.402 442.808 37.216 442.124 37.216C441.368 37.216 440.762 37.462 440.306 37.954C439.982 38.29 439.748 38.752 439.604 39.34C439.472 39.928 439.406 40.732 439.406 41.752V46H437.876ZM452.657 46.18C451.721 46.18 450.887 45.958 450.155 45.514C449.423 45.07 448.853 44.452 448.445 43.66C448.037 42.868 447.833 41.974 447.833 40.978C447.833 40.006 448.037 39.13 448.445 38.35C448.853 37.57 449.423 36.964 450.155 36.532C450.887 36.088 451.721 35.866 452.657 35.866C453.773 35.866 454.715 36.154 455.483 36.73C456.263 37.294 456.767 38.062 456.995 39.034H455.357C455.165 38.482 454.823 38.044 454.331 37.72C453.851 37.384 453.293 37.216 452.657 37.216C452.033 37.216 451.469 37.378 450.965 37.702C450.473 38.026 450.083 38.476 449.795 39.052C449.507 39.616 449.363 40.258 449.363 40.978C449.363 41.722 449.501 42.388 449.777 42.976C450.065 43.552 450.461 44.008 450.965 44.344C451.469 44.668 452.033 44.83 452.657 44.83C453.341 44.83 453.929 44.644 454.421 44.272C454.925 43.9 455.261 43.408 455.429 42.796H457.067C456.851 43.852 456.341 44.68 455.537 45.28C454.745 45.88 453.785 46.18 452.657 46.18ZM463.503 46.18C462.567 46.18 461.727 45.958 460.983 45.514C460.251 45.07 459.681 44.458 459.273 43.678C458.865 42.898 458.661 42.022 458.661 41.05C458.661 40.126 458.853 39.274 459.237 38.494C459.621 37.702 460.173 37.066 460.893 36.586C461.625 36.106 462.483 35.866 463.467 35.866C464.319 35.866 465.111 36.058 465.843 36.442C466.575 36.826 467.163 37.39 467.607 38.134C468.051 38.866 468.273 39.748 468.273 40.78V41.32H461.163C461.079 41.32 460.911 41.32 460.659 41.32C460.419 41.32 460.197 41.308 459.993 41.284L459.939 41.572C460.047 41.596 460.119 41.638 460.155 41.698C460.203 41.746 460.239 41.836 460.263 41.968C460.299 42.088 460.335 42.202 460.371 42.31C460.623 43.078 461.025 43.69 461.577 44.146C462.141 44.602 462.777 44.83 463.485 44.83C464.205 44.83 464.823 44.638 465.339 44.254C465.855 43.87 466.227 43.384 466.455 42.796H468.093C467.769 43.804 467.217 44.62 466.437 45.244C465.657 45.868 464.679 46.18 463.503 46.18ZM460.299 40.312C460.431 40.192 460.563 40.108 460.695 40.06C460.839 40 461.013 39.97 461.217 39.97H465.681C465.909 39.97 466.101 40 466.257 40.06C466.413 40.108 466.563 40.192 466.707 40.312L466.905 40.096C466.785 40.012 466.707 39.94 466.671 39.88C466.647 39.808 466.623 39.718 466.599 39.61C466.563 39.394 466.503 39.19 466.419 38.998C466.167 38.434 465.777 37.996 465.249 37.684C464.733 37.372 464.151 37.216 463.503 37.216C462.843 37.216 462.261 37.372 461.757 37.684C461.265 37.996 460.881 38.434 460.605 38.998C460.497 39.226 460.431 39.43 460.407 39.61C460.395 39.718 460.371 39.802 460.335 39.862C460.299 39.922 460.221 40 460.101 40.096L460.299 40.312Z" fill="black"/>
<path opacity="0.13" d="M154.085 139.6C116.503 143.399 73 190.971 73 190.971V312H734V109.996C734 109.996 690.972 77.7876 660.099 81.2622C624.104 85.3134 621.724 123.902 589.278 139.6C563.573 152.036 546.488 152.738 518.457 158.755C491.473 164.548 475.546 163.858 448.661 170.074C421.289 176.404 407.843 194.099 379.893 190.971C339.355 186.436 343.716 122.533 302.913 122.216C271.099 121.969 264.682 159.223 233.118 163.109C201.099 167.051 186.186 136.355 154.085 139.6Z" fill="#BFC6D0"/>
<path d="M96.5 203.518C96.5 203.518 133.827 223.646 159.5 222.518C190.558 221.154 190.5 187.518 231 187.518C271.5 187.518 269 144.518 289 143.518C309 142.518 328 170.018 368 170.018C408 170.018 403.5 203.518 432.5 203.518C461.5 203.518 463 110.018 501.5 108.518C540 107.018 537 146.518 571.5 143.518C606 140.518 611.5 70.5182 641 69.0182C670.5 67.5182 710 159.018 710 159.018" stroke="#08AA58" stroke-width="2"/>
<path d="M82.7048 334.102C82.3528 334.102 82.1768 333.922 82.1768 333.562V326.098C82.1768 325.738 82.3568 325.558 82.7168 325.558H87.0728C87.3528 325.558 87.4928 325.694 87.4928 325.966C87.4928 326.246 87.3528 326.386 87.0728 326.386H83.1608V329.338H86.8208C87.1088 329.338 87.2528 329.474 87.2528 329.746C87.2528 330.026 87.1088 330.166 86.8208 330.166H83.1608V333.562C83.1608 333.922 83.0088 334.102 82.7048 334.102ZM91.0244 334.126C90.1044 334.126 89.3764 333.858 88.8404 333.322C88.3044 332.778 88.0364 332.042 88.0364 331.114C88.0364 330.514 88.1564 329.986 88.3964 329.53C88.6364 329.066 88.9644 328.71 89.3804 328.462C89.8044 328.206 90.2924 328.078 90.8444 328.078C91.6364 328.078 92.2564 328.334 92.7044 328.846C93.1524 329.35 93.3764 330.046 93.3764 330.934C93.3764 331.182 93.2364 331.306 92.9564 331.306H88.9844C89.0164 331.97 89.2084 332.478 89.5604 332.83C89.9124 333.174 90.4004 333.346 91.0244 333.346C91.2884 333.346 91.5564 333.314 91.8284 333.25C92.1004 333.178 92.3644 333.054 92.6204 332.878C92.8044 332.758 92.9564 332.734 93.0764 332.806C93.2044 332.878 93.2684 332.99 93.2684 333.142C93.2764 333.286 93.1964 333.414 93.0284 333.526C92.7644 333.718 92.4484 333.866 92.0804 333.97C91.7204 334.074 91.3684 334.126 91.0244 334.126ZM90.8684 328.798C90.3164 328.798 89.8804 328.97 89.5604 329.314C89.2404 329.658 89.0524 330.11 88.9964 330.67H92.5364C92.5124 330.078 92.3564 329.618 92.0684 329.29C91.7884 328.962 91.3884 328.798 90.8684 328.798ZM97.7351 334.126C97.2791 334.126 96.8751 334.026 96.5231 333.826C96.1711 333.618 95.9111 333.334 95.7431 332.974V333.598C95.7431 333.934 95.5831 334.102 95.2631 334.102C94.9431 334.102 94.7831 333.934 94.7831 333.598V325.966C94.7831 325.638 94.9431 325.474 95.2631 325.474C95.5911 325.474 95.7551 325.638 95.7551 325.966V329.194C95.9231 328.85 96.1831 328.578 96.5351 328.378C96.8871 328.178 97.2871 328.078 97.7351 328.078C98.2551 328.078 98.7071 328.202 99.0911 328.45C99.4831 328.69 99.7831 329.038 99.9911 329.494C100.207 329.942 100.315 330.478 100.315 331.102C100.315 331.718 100.207 332.254 99.9911 332.71C99.7831 333.158 99.4831 333.506 99.0911 333.754C98.7071 334.002 98.2551 334.126 97.7351 334.126ZM97.5311 333.346C98.0751 333.346 98.5111 333.154 98.8391 332.77C99.1671 332.378 99.3311 331.822 99.3311 331.102C99.3311 330.374 99.1671 329.818 98.8391 329.434C98.5111 329.05 98.0751 328.858 97.5311 328.858C96.9871 328.858 96.5511 329.05 96.2231 329.434C95.8951 329.818 95.7311 330.374 95.7311 331.102C95.7311 331.822 95.8951 332.378 96.2231 332.77C96.5511 333.154 96.9871 333.346 97.5311 333.346Z" fill="#333840"/>
<path d="M151.559 334.102C151.255 334.102 151.103 333.942 151.103 333.622V325.954C151.103 325.634 151.255 325.474 151.559 325.474C151.687 325.474 151.787 325.502 151.859 325.558C151.939 325.606 152.011 325.69 152.075 325.81L155.183 331.666L158.279 325.81C158.343 325.69 158.411 325.606 158.483 325.558C158.555 325.502 158.659 325.474 158.795 325.474C159.091 325.474 159.239 325.634 159.239 325.954V333.622C159.239 333.942 159.087 334.102 158.783 334.102C158.479 334.102 158.327 333.942 158.327 333.622V327.406L155.615 332.506C155.559 332.61 155.499 332.686 155.435 332.734C155.379 332.774 155.295 332.794 155.183 332.794C155.071 332.794 154.983 332.77 154.919 332.722C154.855 332.674 154.799 332.602 154.751 332.506L152.003 327.418V333.622C152.003 333.942 151.855 334.102 151.559 334.102ZM163.049 334.126C162.649 334.126 162.289 334.05 161.969 333.898C161.657 333.738 161.409 333.522 161.225 333.25C161.041 332.978 160.949 332.674 160.949 332.338C160.949 331.914 161.057 331.578 161.273 331.33C161.497 331.082 161.861 330.906 162.365 330.802C162.877 330.69 163.573 330.634 164.453 330.634H164.837V330.262C164.837 329.766 164.733 329.41 164.525 329.194C164.325 328.97 164.001 328.858 163.553 328.858C163.273 328.858 162.989 328.894 162.701 328.966C162.421 329.038 162.129 329.154 161.825 329.314C161.689 329.386 161.573 329.402 161.477 329.362C161.389 329.314 161.325 329.242 161.285 329.146C161.253 329.042 161.253 328.938 161.285 328.834C161.325 328.722 161.405 328.638 161.525 328.582C161.869 328.406 162.213 328.278 162.557 328.198C162.909 328.118 163.241 328.078 163.553 328.078C164.305 328.078 164.861 328.262 165.221 328.63C165.589 328.998 165.773 329.57 165.773 330.346V333.598C165.773 333.934 165.625 334.102 165.329 334.102C165.017 334.102 164.861 333.934 164.861 333.598V333.01C164.709 333.354 164.473 333.626 164.153 333.826C163.841 334.026 163.473 334.126 163.049 334.126ZM163.205 333.394C163.685 333.394 164.077 333.23 164.381 332.902C164.685 332.566 164.837 332.142 164.837 331.63V331.27H164.465C163.817 331.27 163.305 331.302 162.929 331.366C162.561 331.422 162.301 331.526 162.149 331.678C162.005 331.822 161.933 332.022 161.933 332.278C161.933 332.606 162.045 332.874 162.269 333.082C162.501 333.29 162.813 333.394 163.205 333.394ZM168.068 334.102C167.74 334.102 167.576 333.934 167.576 333.598V328.594C167.576 328.266 167.732 328.102 168.044 328.102C168.364 328.102 168.524 328.266 168.524 328.594V329.23C168.684 328.862 168.932 328.582 169.268 328.39C169.604 328.19 170.004 328.082 170.468 328.066C170.724 328.042 170.86 328.17 170.876 328.45C170.9 328.73 170.756 328.886 170.444 328.918L170.252 328.942C169.7 328.99 169.28 329.166 168.992 329.47C168.704 329.766 168.56 330.174 168.56 330.694V333.598C168.56 333.934 168.396 334.102 168.068 334.102Z" fill="#333840"/>
<path d="M221.344 334.102C221.152 334.102 221.02 334.038 220.948 333.91C220.876 333.782 220.884 333.622 220.972 333.43L224.272 325.918C224.4 325.622 224.596 325.474 224.86 325.474C224.98 325.474 225.088 325.51 225.184 325.582C225.288 325.646 225.372 325.758 225.436 325.918L228.748 333.43C228.836 333.622 228.848 333.782 228.784 333.91C228.72 334.038 228.592 334.102 228.4 334.102C228.256 334.102 228.14 334.066 228.052 333.994C227.964 333.914 227.892 333.802 227.836 333.658L227.056 331.858H222.652L221.884 333.658C221.756 333.954 221.576 334.102 221.344 334.102ZM224.848 326.71L223.012 331.03H226.708L224.872 326.71H224.848ZM230.615 336.262C230.295 336.262 230.135 336.098 230.135 335.77V328.594C230.135 328.266 230.291 328.102 230.603 328.102C230.931 328.102 231.095 328.266 231.095 328.594V329.218C231.263 328.866 231.523 328.59 231.875 328.39C232.227 328.182 232.631 328.078 233.087 328.078C233.607 328.078 234.059 328.202 234.443 328.45C234.835 328.69 235.135 329.038 235.343 329.494C235.559 329.942 235.667 330.478 235.667 331.102C235.667 331.718 235.559 332.254 235.343 332.71C235.135 333.158 234.835 333.506 234.443 333.754C234.059 334.002 233.607 334.126 233.087 334.126C232.639 334.126 232.239 334.026 231.887 333.826C231.535 333.626 231.275 333.35 231.107 332.998V335.77C231.107 336.098 230.943 336.262 230.615 336.262ZM232.883 333.346C233.427 333.346 233.863 333.154 234.191 332.77C234.519 332.378 234.683 331.822 234.683 331.102C234.683 330.374 234.519 329.818 234.191 329.434C233.863 329.05 233.427 328.858 232.883 328.858C232.339 328.858 231.903 329.05 231.575 329.434C231.247 329.818 231.083 330.374 231.083 331.102C231.083 331.822 231.247 332.378 231.575 332.77C231.903 333.154 232.339 333.346 232.883 333.346ZM237.623 334.102C237.295 334.102 237.131 333.934 237.131 333.598V328.594C237.131 328.266 237.287 328.102 237.599 328.102C237.919 328.102 238.079 328.266 238.079 328.594V329.23C238.239 328.862 238.487 328.582 238.823 328.39C239.159 328.19 239.559 328.082 240.023 328.066C240.279 328.042 240.415 328.17 240.431 328.45C240.455 328.73 240.311 328.886 239.999 328.918L239.807 328.942C239.255 328.99 238.835 329.166 238.547 329.47C238.259 329.766 238.115 330.174 238.115 330.694V333.598C238.115 333.934 237.951 334.102 237.623 334.102Z" fill="#333840"/>
<path d="M291.657 334.102C291.353 334.102 291.201 333.942 291.201 333.622V325.954C291.201 325.634 291.353 325.474 291.657 325.474C291.785 325.474 291.885 325.502 291.957 325.558C292.037 325.606 292.109 325.69 292.173 325.81L295.281 331.666L298.377 325.81C298.441 325.69 298.509 325.606 298.581 325.558C298.653 325.502 298.757 325.474 298.893 325.474C299.189 325.474 299.337 325.634 299.337 325.954V333.622C299.337 333.942 299.185 334.102 298.881 334.102C298.577 334.102 298.425 333.942 298.425 333.622V327.406L295.713 332.506C295.657 332.61 295.597 332.686 295.533 332.734C295.477 332.774 295.393 332.794 295.281 332.794C295.169 332.794 295.081 332.77 295.017 332.722C294.953 332.674 294.897 332.602 294.849 332.506L292.101 327.418V333.622C292.101 333.942 291.953 334.102 291.657 334.102ZM303.146 334.126C302.746 334.126 302.386 334.05 302.066 333.898C301.754 333.738 301.506 333.522 301.322 333.25C301.138 332.978 301.046 332.674 301.046 332.338C301.046 331.914 301.154 331.578 301.37 331.33C301.594 331.082 301.958 330.906 302.462 330.802C302.974 330.69 303.67 330.634 304.55 330.634H304.934V330.262C304.934 329.766 304.83 329.41 304.622 329.194C304.422 328.97 304.098 328.858 303.65 328.858C303.37 328.858 303.086 328.894 302.798 328.966C302.518 329.038 302.226 329.154 301.922 329.314C301.786 329.386 301.67 329.402 301.574 329.362C301.486 329.314 301.422 329.242 301.382 329.146C301.35 329.042 301.35 328.938 301.382 328.834C301.422 328.722 301.502 328.638 301.622 328.582C301.966 328.406 302.31 328.278 302.654 328.198C303.006 328.118 303.338 328.078 303.65 328.078C304.402 328.078 304.958 328.262 305.318 328.63C305.686 328.998 305.87 329.57 305.87 330.346V333.598C305.87 333.934 305.722 334.102 305.426 334.102C305.114 334.102 304.958 333.934 304.958 333.598V333.01C304.806 333.354 304.57 333.626 304.25 333.826C303.938 334.026 303.57 334.126 303.146 334.126ZM303.302 333.394C303.782 333.394 304.174 333.23 304.478 332.902C304.782 332.566 304.934 332.142 304.934 331.63V331.27H304.562C303.914 331.27 303.402 331.302 303.026 331.366C302.658 331.422 302.398 331.526 302.246 331.678C302.102 331.822 302.03 332.022 302.03 332.278C302.03 332.606 302.142 332.874 302.366 333.082C302.598 333.29 302.91 333.394 303.302 333.394ZM308.911 336.262C308.727 336.262 308.603 336.19 308.539 336.046C308.475 335.91 308.479 335.754 308.551 335.578L309.283 333.922L307.075 328.786C306.995 328.602 306.991 328.442 307.063 328.306C307.143 328.17 307.291 328.102 307.507 328.102C307.731 328.102 307.895 328.23 307.999 328.486L309.811 332.914L311.635 328.486C311.699 328.342 311.767 328.242 311.839 328.186C311.911 328.13 312.015 328.102 312.151 328.102C312.335 328.102 312.459 328.17 312.523 328.306C312.587 328.442 312.583 328.598 312.511 328.774L309.439 335.878C309.375 336.022 309.303 336.122 309.223 336.178C309.151 336.234 309.047 336.262 308.911 336.262Z" fill="#333840"/>
<path d="M362.617 334.09C362.465 334.098 362.349 334.058 362.269 333.97C362.181 333.882 362.137 333.774 362.137 333.646C362.137 333.55 362.169 333.466 362.233 333.394C362.289 333.314 362.381 333.266 362.509 333.25L362.881 333.226C363.289 333.194 363.601 333.054 363.817 332.806C364.033 332.55 364.141 332.202 364.141 331.762V325.978C364.141 325.642 364.305 325.474 364.633 325.474C364.961 325.474 365.125 325.642 365.125 325.978V331.774C365.125 332.47 364.945 333.014 364.585 333.406C364.225 333.79 363.701 334.006 363.013 334.054L362.617 334.09ZM369.148 334.126C367.748 334.126 367.048 333.354 367.048 331.81V328.594C367.048 328.266 367.208 328.102 367.528 328.102C367.856 328.102 368.02 328.266 368.02 328.594V331.798C368.02 332.318 368.124 332.702 368.332 332.95C368.548 333.198 368.884 333.322 369.34 333.322C369.836 333.322 370.24 333.158 370.552 332.83C370.864 332.494 371.02 332.05 371.02 331.498V328.594C371.02 328.266 371.184 328.102 371.512 328.102C371.832 328.102 371.992 328.266 371.992 328.594V333.598C371.992 333.934 371.836 334.102 371.524 334.102C371.204 334.102 371.044 333.934 371.044 333.598V333.034C370.86 333.386 370.6 333.658 370.264 333.85C369.936 334.034 369.564 334.126 369.148 334.126ZM374.29 334.102C373.97 334.102 373.81 333.934 373.81 333.598V328.594C373.81 328.266 373.966 328.102 374.278 328.102C374.598 328.102 374.758 328.266 374.758 328.594V329.182C374.95 328.814 375.222 328.538 375.574 328.354C375.926 328.17 376.322 328.078 376.762 328.078C378.146 328.078 378.838 328.846 378.838 330.382V333.598C378.838 333.934 378.678 334.102 378.358 334.102C378.03 334.102 377.866 333.934 377.866 333.598V330.442C377.866 329.898 377.758 329.502 377.542 329.254C377.334 328.998 376.998 328.87 376.534 328.87C375.998 328.87 375.57 329.038 375.25 329.374C374.938 329.702 374.782 330.142 374.782 330.694V333.598C374.782 333.934 374.618 334.102 374.29 334.102Z" fill="#333840"/>
<path d="M429.752 334.09C429.6 334.098 429.484 334.058 429.404 333.97C429.316 333.882 429.272 333.774 429.272 333.646C429.272 333.55 429.304 333.466 429.368 333.394C429.424 333.314 429.516 333.266 429.644 333.25L430.016 333.226C430.424 333.194 430.736 333.054 430.952 332.806C431.168 332.55 431.276 332.202 431.276 331.762V325.978C431.276 325.642 431.44 325.474 431.768 325.474C432.096 325.474 432.26 325.642 432.26 325.978V331.774C432.26 332.47 432.08 333.014 431.72 333.406C431.36 333.79 430.836 334.006 430.148 334.054L429.752 334.09ZM436.283 334.126C434.883 334.126 434.183 333.354 434.183 331.81V328.594C434.183 328.266 434.343 328.102 434.663 328.102C434.991 328.102 435.155 328.266 435.155 328.594V331.798C435.155 332.318 435.259 332.702 435.467 332.95C435.683 333.198 436.019 333.322 436.475 333.322C436.971 333.322 437.375 333.158 437.687 332.83C437.999 332.494 438.155 332.05 438.155 331.498V328.594C438.155 328.266 438.319 328.102 438.647 328.102C438.967 328.102 439.127 328.266 439.127 328.594V333.598C439.127 333.934 438.971 334.102 438.659 334.102C438.339 334.102 438.179 333.934 438.179 333.598V333.034C437.995 333.386 437.735 333.658 437.399 333.85C437.071 334.034 436.699 334.126 436.283 334.126ZM442.721 334.126C442.145 334.126 441.705 333.954 441.401 333.61C441.097 333.258 440.945 332.75 440.945 332.086V325.966C440.945 325.638 441.105 325.474 441.425 325.474C441.753 325.474 441.917 325.638 441.917 325.966V332.014C441.917 332.87 442.257 333.298 442.937 333.298C443.009 333.298 443.073 333.294 443.129 333.286C443.185 333.278 443.241 333.274 443.297 333.274C443.385 333.266 443.445 333.286 443.477 333.334C443.517 333.382 443.537 333.478 443.537 333.622C443.537 333.894 443.401 334.05 443.129 334.09C443.065 334.106 442.997 334.114 442.925 334.114C442.853 334.122 442.785 334.126 442.721 334.126Z" fill="#333840"/>
<path d="M494.114 334.102C493.922 334.102 493.79 334.038 493.718 333.91C493.646 333.782 493.654 333.622 493.742 333.43L497.042 325.918C497.17 325.622 497.366 325.474 497.63 325.474C497.75 325.474 497.858 325.51 497.954 325.582C498.058 325.646 498.142 325.758 498.206 325.918L501.518 333.43C501.606 333.622 501.618 333.782 501.554 333.91C501.49 334.038 501.362 334.102 501.17 334.102C501.026 334.102 500.91 334.066 500.822 333.994C500.734 333.914 500.662 333.802 500.606 333.658L499.826 331.858H495.422L494.654 333.658C494.526 333.954 494.346 334.102 494.114 334.102ZM497.618 326.71L495.782 331.03H499.478L497.642 326.71H497.618ZM504.968 334.126C503.568 334.126 502.868 333.354 502.868 331.81V328.594C502.868 328.266 503.028 328.102 503.348 328.102C503.676 328.102 503.84 328.266 503.84 328.594V331.798C503.84 332.318 503.944 332.702 504.152 332.95C504.368 333.198 504.704 333.322 505.16 333.322C505.656 333.322 506.06 333.158 506.372 332.83C506.684 332.494 506.84 332.05 506.84 331.498V328.594C506.84 328.266 507.004 328.102 507.332 328.102C507.652 328.102 507.812 328.266 507.812 328.594V333.598C507.812 333.934 507.656 334.102 507.344 334.102C507.024 334.102 506.864 333.934 506.864 333.598V333.034C506.68 333.386 506.42 333.658 506.084 333.85C505.756 334.034 505.384 334.126 504.968 334.126ZM512.211 336.286C511.787 336.286 511.371 336.234 510.963 336.13C510.563 336.034 510.199 335.878 509.871 335.662C509.751 335.59 509.679 335.502 509.655 335.398C509.639 335.302 509.655 335.206 509.703 335.11C509.751 335.022 509.819 334.958 509.907 334.918C510.003 334.878 510.103 334.886 510.207 334.942C510.559 335.158 510.895 335.306 511.215 335.386C511.535 335.466 511.851 335.506 512.163 335.506C513.315 335.506 513.891 334.914 513.891 333.73V332.698C513.723 333.066 513.459 333.358 513.099 333.574C512.747 333.782 512.343 333.886 511.887 333.886C511.351 333.886 510.887 333.762 510.495 333.514C510.103 333.266 509.799 332.926 509.583 332.494C509.375 332.054 509.271 331.546 509.271 330.97C509.271 330.394 509.375 329.89 509.583 329.458C509.799 329.018 510.103 328.678 510.495 328.438C510.887 328.198 511.351 328.078 511.887 328.078C512.343 328.078 512.747 328.178 513.099 328.378C513.451 328.578 513.711 328.858 513.879 329.218V328.594C513.879 328.266 514.039 328.102 514.359 328.102C514.679 328.102 514.839 328.266 514.839 328.594V333.598C514.839 334.494 514.615 335.166 514.167 335.614C513.727 336.062 513.075 336.286 512.211 336.286ZM512.067 333.094C512.627 333.094 513.071 332.902 513.399 332.518C513.727 332.134 513.891 331.618 513.891 330.97C513.891 330.322 513.727 329.81 513.399 329.434C513.071 329.05 512.627 328.858 512.067 328.858C511.515 328.858 511.075 329.05 510.747 329.434C510.419 329.81 510.255 330.322 510.255 330.97C510.255 331.618 510.419 332.134 510.747 332.518C511.075 332.902 511.515 333.094 512.067 333.094Z" fill="#333840"/>
<path d="M568.897 334.126C568.321 334.126 567.777 334.058 567.265 333.922C566.761 333.778 566.325 333.57 565.957 333.298C565.829 333.21 565.753 333.106 565.729 332.986C565.705 332.866 565.717 332.754 565.765 332.65C565.821 332.546 565.901 332.478 566.005 332.446C566.109 332.406 566.229 332.43 566.365 332.518C566.725 332.782 567.109 332.97 567.517 333.082C567.925 333.194 568.385 333.25 568.897 333.25C569.617 333.25 570.149 333.118 570.493 332.854C570.845 332.582 571.021 332.226 571.021 331.786C571.021 331.434 570.893 331.154 570.637 330.946C570.389 330.738 569.969 330.574 569.377 330.454L568.129 330.202C567.377 330.042 566.813 329.782 566.437 329.422C566.069 329.054 565.885 328.566 565.885 327.958C565.885 327.454 566.013 327.014 566.269 326.638C566.533 326.262 566.897 325.97 567.361 325.762C567.825 325.554 568.361 325.45 568.969 325.45C569.473 325.45 569.941 325.522 570.373 325.666C570.813 325.802 571.209 326.01 571.561 326.29C571.673 326.378 571.737 326.482 571.753 326.602C571.777 326.714 571.761 326.818 571.705 326.914C571.649 327.01 571.569 327.074 571.465 327.106C571.361 327.13 571.237 327.098 571.093 327.01C570.773 326.762 570.437 326.586 570.085 326.482C569.741 326.378 569.365 326.326 568.957 326.326C568.325 326.326 567.821 326.474 567.445 326.77C567.069 327.058 566.881 327.442 566.881 327.922C566.881 328.306 566.997 328.61 567.229 328.834C567.469 329.058 567.857 329.222 568.393 329.326L569.641 329.59C570.449 329.758 571.045 330.014 571.429 330.358C571.821 330.694 572.017 331.154 572.017 331.738C572.017 332.21 571.889 332.626 571.633 332.986C571.385 333.346 571.025 333.626 570.553 333.826C570.089 334.026 569.537 334.126 568.897 334.126ZM576.04 334.126C575.12 334.126 574.392 333.858 573.856 333.322C573.32 332.778 573.052 332.042 573.052 331.114C573.052 330.514 573.172 329.986 573.412 329.53C573.652 329.066 573.98 328.71 574.396 328.462C574.82 328.206 575.308 328.078 575.86 328.078C576.652 328.078 577.272 328.334 577.72 328.846C578.168 329.35 578.392 330.046 578.392 330.934C578.392 331.182 578.252 331.306 577.972 331.306H574C574.032 331.97 574.224 332.478 574.576 332.83C574.928 333.174 575.416 333.346 576.04 333.346C576.304 333.346 576.572 333.314 576.844 333.25C577.116 333.178 577.38 333.054 577.636 332.878C577.82 332.758 577.972 332.734 578.092 332.806C578.22 332.878 578.284 332.99 578.284 333.142C578.292 333.286 578.212 333.414 578.044 333.526C577.78 333.718 577.464 333.866 577.096 333.97C576.736 334.074 576.384 334.126 576.04 334.126ZM575.884 328.798C575.332 328.798 574.896 328.97 574.576 329.314C574.256 329.658 574.068 330.11 574.012 330.67H577.552C577.528 330.078 577.372 329.618 577.084 329.29C576.804 328.962 576.404 328.798 575.884 328.798ZM580.279 336.262C579.959 336.262 579.799 336.098 579.799 335.77V328.594C579.799 328.266 579.955 328.102 580.267 328.102C580.595 328.102 580.759 328.266 580.759 328.594V329.218C580.927 328.866 581.187 328.59 581.539 328.39C581.891 328.182 582.295 328.078 582.751 328.078C583.271 328.078 583.723 328.202 584.107 328.45C584.499 328.69 584.799 329.038 585.007 329.494C585.223 329.942 585.331 330.478 585.331 331.102C585.331 331.718 585.223 332.254 585.007 332.71C584.799 333.158 584.499 333.506 584.107 333.754C583.723 334.002 583.271 334.126 582.751 334.126C582.303 334.126 581.903 334.026 581.551 333.826C581.199 333.626 580.939 333.35 580.771 332.998V335.77C580.771 336.098 580.607 336.262 580.279 336.262ZM582.547 333.346C583.091 333.346 583.527 333.154 583.855 332.77C584.183 332.378 584.347 331.822 584.347 331.102C584.347 330.374 584.183 329.818 583.855 329.434C583.527 329.05 583.091 328.858 582.547 328.858C582.003 328.858 581.567 329.05 581.239 329.434C580.911 329.818 580.747 330.374 580.747 331.102C580.747 331.822 580.911 332.378 581.239 332.77C581.567 333.154 582.003 333.346 582.547 333.346Z" fill="#333840"/>
<path d="M639.621 334.126C638.837 334.126 638.153 333.95 637.569 333.598C636.993 333.238 636.545 332.734 636.225 332.086C635.913 331.438 635.757 330.67 635.757 329.782C635.757 328.894 635.913 328.126 636.225 327.478C636.537 326.83 636.981 326.33 637.557 325.978C638.141 325.626 638.829 325.45 639.621 325.45C640.421 325.45 641.109 325.626 641.685 325.978C642.269 326.33 642.717 326.83 643.029 327.478C643.349 328.118 643.509 328.882 643.509 329.77C643.509 330.658 643.349 331.43 643.029 332.086C642.709 332.734 642.257 333.238 641.673 333.598C641.097 333.95 640.413 334.126 639.621 334.126ZM639.621 333.25C640.525 333.25 641.225 332.946 641.721 332.338C642.217 331.73 642.465 330.878 642.465 329.782C642.465 328.686 642.217 327.838 641.721 327.238C641.225 326.63 640.525 326.326 639.621 326.326C638.733 326.326 638.041 326.63 637.545 327.238C637.049 327.838 636.801 328.686 636.801 329.782C636.801 330.87 637.049 331.722 637.545 332.338C638.041 332.946 638.733 333.25 639.621 333.25ZM647.609 334.126C647.025 334.126 646.521 334.002 646.097 333.754C645.673 333.498 645.345 333.142 645.113 332.686C644.889 332.222 644.777 331.682 644.777 331.066C644.777 330.138 645.029 329.41 645.533 328.882C646.037 328.346 646.729 328.078 647.609 328.078C647.897 328.078 648.197 328.126 648.509 328.222C648.821 328.31 649.105 328.458 649.361 328.666C649.497 328.762 649.553 328.882 649.529 329.026C649.513 329.17 649.445 329.278 649.325 329.35C649.213 329.422 649.081 329.406 648.929 329.302C648.713 329.142 648.497 329.03 648.281 328.966C648.073 328.902 647.869 328.87 647.669 328.87C647.061 328.87 646.593 329.062 646.265 329.446C645.937 329.822 645.773 330.366 645.773 331.078C645.773 331.774 645.937 332.326 646.265 332.734C646.593 333.134 647.061 333.334 647.669 333.334C647.869 333.334 648.073 333.302 648.281 333.238C648.497 333.174 648.713 333.062 648.929 332.902C649.081 332.798 649.213 332.786 649.325 332.866C649.437 332.938 649.497 333.046 649.505 333.19C649.521 333.334 649.465 333.45 649.337 333.538C649.081 333.746 648.801 333.898 648.497 333.994C648.193 334.082 647.897 334.126 647.609 334.126ZM653.031 334.126C652.343 334.126 651.827 333.946 651.483 333.586C651.139 333.218 650.967 332.69 650.967 332.002V328.942H650.163C649.883 328.942 649.743 328.814 649.743 328.558C649.743 328.31 649.883 328.186 650.163 328.186H650.967V326.806C650.967 326.478 651.131 326.314 651.459 326.314C651.779 326.314 651.939 326.478 651.939 326.806V328.186H653.451C653.731 328.186 653.871 328.31 653.871 328.558C653.871 328.814 653.731 328.942 653.451 328.942H651.939V331.906C651.939 332.362 652.035 332.71 652.227 332.95C652.419 333.182 652.731 333.298 653.163 333.298C653.315 333.298 653.443 333.282 653.547 333.25C653.651 333.218 653.743 333.202 653.823 333.202C653.895 333.194 653.955 333.218 654.003 333.274C654.051 333.33 654.075 333.426 654.075 333.562C654.075 333.658 654.055 333.746 654.015 333.826C653.983 333.906 653.923 333.962 653.835 333.994C653.739 334.026 653.611 334.054 653.451 334.078C653.299 334.11 653.159 334.126 653.031 334.126Z" fill="#333840"/>
<path d="M704.69 334.102C704.378 334.102 704.222 333.938 704.222 333.61V325.978C704.222 325.642 704.366 325.474 704.654 325.474C704.774 325.474 704.866 325.498 704.93 325.546C704.994 325.586 705.066 325.662 705.146 325.774L710.09 332.362V325.954C710.09 325.634 710.246 325.474 710.558 325.474C710.854 325.474 711.002 325.634 711.002 325.954V333.622C711.002 333.942 710.87 334.102 710.606 334.102C710.486 334.102 710.39 334.078 710.318 334.03C710.246 333.982 710.17 333.906 710.09 333.802L705.146 327.19V333.61C705.146 333.938 704.994 334.102 704.69 334.102ZM715.397 334.126C714.829 334.126 714.337 334.002 713.921 333.754C713.505 333.506 713.181 333.158 712.949 332.71C712.725 332.254 712.613 331.718 712.613 331.102C712.613 330.486 712.725 329.954 712.949 329.506C713.181 329.05 713.505 328.698 713.921 328.45C714.337 328.202 714.829 328.078 715.397 328.078C715.957 328.078 716.445 328.202 716.861 328.45C717.285 328.698 717.609 329.05 717.833 329.506C718.065 329.954 718.181 330.486 718.181 331.102C718.181 331.718 718.065 332.254 717.833 332.71C717.609 333.158 717.285 333.506 716.861 333.754C716.445 334.002 715.957 334.126 715.397 334.126ZM715.397 333.346C715.941 333.346 716.377 333.154 716.705 332.77C717.033 332.378 717.197 331.822 717.197 331.102C717.197 330.374 717.033 329.818 716.705 329.434C716.377 329.05 715.941 328.858 715.397 328.858C714.845 328.858 714.405 329.05 714.077 329.434C713.757 329.818 713.597 330.374 713.597 331.102C713.597 331.822 713.757 332.378 714.077 332.77C714.405 333.154 714.845 333.346 715.397 333.346ZM721.73 334.102C721.45 334.102 721.242 333.946 721.106 333.634L719.03 328.786C718.95 328.602 718.946 328.442 719.018 328.306C719.09 328.17 719.234 328.102 719.45 328.102C719.674 328.102 719.838 328.23 719.942 328.486L721.754 332.914L723.59 328.486C723.646 328.342 723.71 328.242 723.782 328.186C723.854 328.13 723.958 328.102 724.094 328.102C724.278 328.102 724.402 328.17 724.466 328.306C724.53 328.442 724.526 328.598 724.454 328.774L722.354 333.634C722.226 333.946 722.018 334.102 721.73 334.102Z" fill="#333840"/>
<line x1="61" y1="314.518" x2="744" y2="314.483" stroke="#BFC6D0"/>
<line opacity="0.2" x1="61" y1="280.518" x2="744" y2="280.483" stroke="#BFC6D0"/>
<line opacity="0.2" x1="61" y1="250.518" x2="744" y2="250.483" stroke="#BFC6D0"/>
<line opacity="0.2" x1="61" y1="220.518" x2="744" y2="220.483" stroke="#BFC6D0"/>
<line opacity="0.2" x1="61" y1="190.518" x2="744" y2="190.483" stroke="#BFC6D0"/>
<line opacity="0.2" x1="61" y1="160.518" x2="744" y2="160.483" stroke="#BFC6D0"/>
<line opacity="0.2" x1="61" y1="130.518" x2="744" y2="130.483" stroke="#BFC6D0"/>
<line opacity="0.2" x1="61" y1="100.518" x2="744" y2="100.483" stroke="#BFC6D0"/>
<path d="M41.4047 315.126C40.4367 315.126 39.7007 314.754 39.1967 314.01C38.6927 313.266 38.4407 312.19 38.4407 310.782C38.4407 309.366 38.6927 308.29 39.1967 307.554C39.7007 306.818 40.4367 306.45 41.4047 306.45C42.3807 306.45 43.1167 306.818 43.6127 307.554C44.1167 308.282 44.3687 309.354 44.3687 310.77C44.3687 312.186 44.1127 313.266 43.6007 314.01C43.0967 314.754 42.3647 315.126 41.4047 315.126ZM41.4047 314.274C42.0767 314.274 42.5727 313.99 42.8927 313.422C43.2207 312.846 43.3847 311.962 43.3847 310.77C43.3847 309.57 43.2247 308.694 42.9047 308.142C42.5847 307.582 42.0847 307.302 41.4047 307.302C40.7327 307.302 40.2327 307.582 39.9047 308.142C39.5847 308.702 39.4247 309.578 39.4247 310.77C39.4247 311.962 39.5847 312.846 39.9047 313.422C40.2327 313.99 40.7327 314.274 41.4047 314.274Z" fill="#333840"/>
<path d="M36.1574 285.018C35.9734 285.018 35.8414 284.978 35.7614 284.898C35.6814 284.81 35.6414 284.694 35.6414 284.55C35.6414 284.382 35.7254 284.21 35.8934 284.034L38.5814 281.154C38.9894 280.714 39.2814 280.31 39.4574 279.942C39.6414 279.566 39.7334 279.186 39.7334 278.802C39.7334 277.818 39.1614 277.326 38.0174 277.326C37.3054 277.326 36.6574 277.554 36.0734 278.01C35.9454 278.106 35.8294 278.142 35.7254 278.118C35.6214 278.086 35.5414 278.022 35.4854 277.926C35.4374 277.83 35.4174 277.726 35.4254 277.614C35.4414 277.494 35.5094 277.39 35.6294 277.302C35.9414 277.046 36.3174 276.842 36.7574 276.69C37.1974 276.53 37.6454 276.45 38.1014 276.45C38.9494 276.45 39.5974 276.65 40.0454 277.05C40.5014 277.442 40.7294 278.002 40.7294 278.73C40.7294 279.234 40.6054 279.73 40.3574 280.218C40.1174 280.698 39.7374 281.21 39.2174 281.754L36.9374 284.178H40.7054C41.0094 284.178 41.1614 284.314 41.1614 284.586C41.1614 284.874 41.0094 285.018 40.7054 285.018H36.1574ZM45.4047 285.126C44.4367 285.126 43.7007 284.754 43.1967 284.01C42.6927 283.266 42.4407 282.19 42.4407 280.782C42.4407 279.366 42.6927 278.29 43.1967 277.554C43.7007 276.818 44.4367 276.45 45.4047 276.45C46.3807 276.45 47.1167 276.818 47.6127 277.554C48.1167 278.282 48.3687 279.354 48.3687 280.77C48.3687 282.186 48.1127 283.266 47.6007 284.01C47.0967 284.754 46.3647 285.126 45.4047 285.126ZM45.4047 284.274C46.0767 284.274 46.5727 283.99 46.8927 283.422C47.2207 282.846 47.3847 281.962 47.3847 280.77C47.3847 279.57 47.2247 278.694 46.9047 278.142C46.5847 277.582 46.0847 277.302 45.4047 277.302C44.7327 277.302 44.2327 277.582 43.9047 278.142C43.5847 278.702 43.4247 279.578 43.4247 280.77C43.4247 281.962 43.5847 282.846 43.9047 283.422C44.2327 283.99 44.7327 284.274 45.4047 284.274Z" fill="#333840"/>
<path d="M39.6254 255.102C39.2974 255.102 39.1334 254.934 39.1334 254.598V253.206H35.6894C35.5294 253.206 35.4014 253.17 35.3054 253.098C35.2174 253.018 35.1734 252.906 35.1734 252.762C35.1734 252.618 35.2654 252.41 35.4494 252.138L39.1094 246.81C39.2534 246.586 39.4374 246.474 39.6614 246.474C39.7894 246.474 39.8974 246.518 39.9854 246.606C40.0814 246.686 40.1294 246.81 40.1294 246.978V252.366H41.0054C41.3174 252.366 41.4734 252.506 41.4734 252.786C41.4734 253.066 41.3174 253.206 41.0054 253.206H40.1294V254.598C40.1294 254.934 39.9614 255.102 39.6254 255.102ZM39.1334 252.366V248.142L36.2414 252.366H39.1334ZM45.4047 255.126C44.4367 255.126 43.7007 254.754 43.1967 254.01C42.6927 253.266 42.4407 252.19 42.4407 250.782C42.4407 249.366 42.6927 248.29 43.1967 247.554C43.7007 246.818 44.4367 246.45 45.4047 246.45C46.3807 246.45 47.1167 246.818 47.6127 247.554C48.1167 248.282 48.3687 249.354 48.3687 250.77C48.3687 252.186 48.1127 253.266 47.6007 254.01C47.0967 254.754 46.3647 255.126 45.4047 255.126ZM45.4047 254.274C46.0767 254.274 46.5727 253.99 46.8927 253.422C47.2207 252.846 47.3847 251.962 47.3847 250.77C47.3847 249.57 47.2247 248.694 46.9047 248.142C46.5847 247.582 46.0847 247.302 45.4047 247.302C44.7327 247.302 44.2327 247.582 43.9047 248.142C43.5847 248.702 43.4247 249.578 43.4247 250.77C43.4247 251.962 43.5847 252.846 43.9047 253.422C44.2327 253.99 44.7327 254.274 45.4047 254.274Z" fill="#333840"/>
<path d="M38.4974 225.126C37.4974 225.126 36.7254 224.766 36.1814 224.046C35.6454 223.318 35.3774 222.302 35.3774 220.998C35.3774 219.534 35.6774 218.41 36.2774 217.626C36.8774 216.842 37.7174 216.45 38.7974 216.45C39.1654 216.45 39.5414 216.522 39.9254 216.666C40.3174 216.81 40.6614 217.014 40.9574 217.278C41.0614 217.366 41.1174 217.466 41.1254 217.578C41.1414 217.69 41.1214 217.794 41.0654 217.89C41.0094 217.986 40.9294 218.05 40.8254 218.082C40.7294 218.106 40.6174 218.07 40.4894 217.974C40.2174 217.742 39.9374 217.578 39.6494 217.482C39.3614 217.378 39.0694 217.326 38.7734 217.326C37.9894 217.326 37.3854 217.618 36.9614 218.202C36.5454 218.786 36.3374 219.654 36.3374 220.806V221.394C36.4894 220.866 36.7694 220.454 37.1774 220.158C37.5934 219.862 38.0814 219.714 38.6414 219.714C39.1374 219.714 39.5774 219.83 39.9614 220.062C40.3454 220.286 40.6454 220.598 40.8614 220.998C41.0774 221.398 41.1854 221.858 41.1854 222.378C41.1854 222.914 41.0694 223.39 40.8374 223.806C40.6134 224.214 40.2974 224.538 39.8894 224.778C39.4894 225.01 39.0254 225.126 38.4974 225.126ZM38.4374 224.286C38.9734 224.286 39.4054 224.114 39.7334 223.77C40.0694 223.426 40.2374 222.974 40.2374 222.414C40.2374 221.862 40.0694 221.414 39.7334 221.07C39.4054 220.718 38.9734 220.542 38.4374 220.542C37.9014 220.542 37.4654 220.718 37.1294 221.07C36.8014 221.414 36.6374 221.862 36.6374 222.414C36.6374 222.974 36.8014 223.426 37.1294 223.77C37.4654 224.114 37.9014 224.286 38.4374 224.286ZM45.4047 225.126C44.4367 225.126 43.7007 224.754 43.1967 224.01C42.6927 223.266 42.4407 222.19 42.4407 220.782C42.4407 219.366 42.6927 218.29 43.1967 217.554C43.7007 216.818 44.4367 216.45 45.4047 216.45C46.3807 216.45 47.1167 216.818 47.6127 217.554C48.1167 218.282 48.3687 219.354 48.3687 220.77C48.3687 222.186 48.1127 223.266 47.6007 224.01C47.0967 224.754 46.3647 225.126 45.4047 225.126ZM45.4047 224.274C46.0767 224.274 46.5727 223.99 46.8927 223.422C47.2207 222.846 47.3847 221.962 47.3847 220.77C47.3847 219.57 47.2247 218.694 46.9047 218.142C46.5847 217.582 46.0847 217.302 45.4047 217.302C44.7327 217.302 44.2327 217.582 43.9047 218.142C43.5847 218.702 43.4247 219.578 43.4247 220.77C43.4247 221.962 43.5847 222.846 43.9047 223.422C44.2327 223.99 44.7327 224.274 45.4047 224.274Z" fill="#333840"/>
<path opacity="0.7" d="M38.2094 195.126C37.2574 195.126 36.5174 194.922 35.9894 194.514C35.4614 194.098 35.1974 193.518 35.1974 192.774C35.1974 192.254 35.3374 191.81 35.6174 191.442C35.9054 191.074 36.2854 190.822 36.7574 190.686C36.3334 190.526 36.0014 190.27 35.7614 189.918C35.5214 189.566 35.4014 189.162 35.4014 188.706C35.4014 187.994 35.6534 187.442 36.1574 187.05C36.6694 186.65 37.3534 186.45 38.2094 186.45C39.0654 186.45 39.7494 186.65 40.2614 187.05C40.7734 187.442 41.0294 187.994 41.0294 188.706C41.0294 189.162 40.9054 189.57 40.6574 189.93C40.4174 190.282 40.0894 190.534 39.6734 190.686C40.1454 190.822 40.5214 191.074 40.8014 191.442C41.0814 191.81 41.2214 192.254 41.2214 192.774C41.2214 193.518 40.9574 194.098 40.4294 194.514C39.9014 194.922 39.1614 195.126 38.2094 195.126ZM38.2094 190.326C38.7934 190.326 39.2494 190.19 39.5774 189.918C39.9134 189.638 40.0814 189.262 40.0814 188.79C40.0814 188.31 39.9134 187.938 39.5774 187.674C39.2494 187.402 38.7934 187.266 38.2094 187.266C37.6254 187.266 37.1694 187.402 36.8414 187.674C36.5134 187.938 36.3494 188.31 36.3494 188.79C36.3494 189.262 36.5134 189.638 36.8414 189.918C37.1694 190.19 37.6254 190.326 38.2094 190.326ZM38.2094 194.31C39.5854 194.31 40.2734 193.778 40.2734 192.714C40.2734 191.666 39.5854 191.142 38.2094 191.142C36.8334 191.142 36.1454 191.666 36.1454 192.714C36.1454 193.778 36.8334 194.31 38.2094 194.31ZM45.4047 195.126C44.4367 195.126 43.7007 194.754 43.1967 194.01C42.6927 193.266 42.4407 192.19 42.4407 190.782C42.4407 189.366 42.6927 188.29 43.1967 187.554C43.7007 186.818 44.4367 186.45 45.4047 186.45C46.3807 186.45 47.1167 186.818 47.6127 187.554C48.1167 188.282 48.3687 189.354 48.3687 190.77C48.3687 192.186 48.1127 193.266 47.6007 194.01C47.0967 194.754 46.3647 195.126 45.4047 195.126ZM45.4047 194.274C46.0767 194.274 46.5727 193.99 46.8927 193.422C47.2207 192.846 47.3847 191.962 47.3847 190.77C47.3847 189.57 47.2247 188.694 46.9047 188.142C46.5847 187.582 46.0847 187.302 45.4047 187.302C44.7327 187.302 44.2327 187.582 43.9047 188.142C43.5847 188.702 43.4247 189.578 43.4247 190.77C43.4247 191.962 43.5847 192.846 43.9047 193.422C44.2327 193.99 44.7327 194.274 45.4047 194.274Z" fill="#333840"/>
<path opacity="0.7" d="M29.2741 165.018C28.9701 165.018 28.8181 164.874 28.8181 164.586C28.8181 164.314 28.9701 164.178 29.2741 164.178H30.8341V157.71L29.6101 158.526C29.4821 158.606 29.3621 158.63 29.2501 158.598C29.1461 158.558 29.0661 158.49 29.0101 158.394C28.9541 158.298 28.9341 158.194 28.9501 158.082C28.9741 157.97 29.0501 157.87 29.1781 157.782L30.8341 156.69C30.9381 156.626 31.0381 156.574 31.1341 156.534C31.2301 156.494 31.3261 156.474 31.4221 156.474C31.5341 156.474 31.6261 156.51 31.6981 156.582C31.7781 156.646 31.8181 156.75 31.8181 156.894V164.178H33.2581C33.5621 164.178 33.7141 164.314 33.7141 164.586C33.7141 164.874 33.5621 165.018 33.2581 165.018H29.2741ZM38.2094 165.126C37.2414 165.126 36.5054 164.754 36.0014 164.01C35.4974 163.266 35.2454 162.19 35.2454 160.782C35.2454 159.366 35.4974 158.29 36.0014 157.554C36.5054 156.818 37.2414 156.45 38.2094 156.45C39.1854 156.45 39.9214 156.818 40.4174 157.554C40.9214 158.282 41.1734 159.354 41.1734 160.77C41.1734 162.186 40.9174 163.266 40.4054 164.01C39.9014 164.754 39.1694 165.126 38.2094 165.126ZM38.2094 164.274C38.8814 164.274 39.3774 163.99 39.6974 163.422C40.0254 162.846 40.1894 161.962 40.1894 160.77C40.1894 159.57 40.0294 158.694 39.7094 158.142C39.3894 157.582 38.8894 157.302 38.2094 157.302C37.5374 157.302 37.0374 157.582 36.7094 158.142C36.3894 158.702 36.2294 159.578 36.2294 160.77C36.2294 161.962 36.3894 162.846 36.7094 163.422C37.0374 163.99 37.5374 164.274 38.2094 164.274ZM45.4047 165.126C44.4367 165.126 43.7007 164.754 43.1967 164.01C42.6927 163.266 42.4407 162.19 42.4407 160.782C42.4407 159.366 42.6927 158.29 43.1967 157.554C43.7007 156.818 44.4367 156.45 45.4047 156.45C46.3807 156.45 47.1167 156.818 47.6127 157.554C48.1167 158.282 48.3687 159.354 48.3687 160.77C48.3687 162.186 48.1127 163.266 47.6007 164.01C47.0967 164.754 46.3647 165.126 45.4047 165.126ZM45.4047 164.274C46.0767 164.274 46.5727 163.99 46.8927 163.422C47.2207 162.846 47.3847 161.962 47.3847 160.77C47.3847 159.57 47.2247 158.694 46.9047 158.142C46.5847 157.582 46.0847 157.302 45.4047 157.302C44.7327 157.302 44.2327 157.582 43.9047 158.142C43.5847 158.702 43.4247 159.578 43.4247 160.77C43.4247 161.962 43.5847 162.846 43.9047 163.422C44.2327 163.99 44.7327 164.274 45.4047 164.274Z" fill="#333840"/>
<path opacity="0.7" d="M29.2741 135.018C28.9701 135.018 28.8181 134.874 28.8181 134.586C28.8181 134.314 28.9701 134.178 29.2741 134.178H30.8341V127.71L29.6101 128.526C29.4821 128.606 29.3621 128.63 29.2501 128.598C29.1461 128.558 29.0661 128.49 29.0101 128.394C28.9541 128.298 28.9341 128.194 28.9501 128.082C28.9741 127.97 29.0501 127.87 29.1781 127.782L30.8341 126.69C30.9381 126.626 31.0381 126.574 31.1341 126.534C31.2301 126.494 31.3261 126.474 31.4221 126.474C31.5341 126.474 31.6261 126.51 31.6981 126.582C31.7781 126.646 31.8181 126.75 31.8181 126.894V134.178H33.2581C33.5621 134.178 33.7141 134.314 33.7141 134.586C33.7141 134.874 33.5621 135.018 33.2581 135.018H29.2741ZM36.1574 135.018C35.9734 135.018 35.8414 134.978 35.7614 134.898C35.6814 134.81 35.6414 134.694 35.6414 134.55C35.6414 134.382 35.7254 134.21 35.8934 134.034L38.5814 131.154C38.9894 130.714 39.2814 130.31 39.4574 129.942C39.6414 129.566 39.7334 129.186 39.7334 128.802C39.7334 127.818 39.1614 127.326 38.0174 127.326C37.3054 127.326 36.6574 127.554 36.0734 128.01C35.9454 128.106 35.8294 128.142 35.7254 128.118C35.6214 128.086 35.5414 128.022 35.4854 127.926C35.4374 127.83 35.4174 127.726 35.4254 127.614C35.4414 127.494 35.5094 127.39 35.6294 127.302C35.9414 127.046 36.3174 126.842 36.7574 126.69C37.1974 126.53 37.6454 126.45 38.1014 126.45C38.9494 126.45 39.5974 126.65 40.0454 127.05C40.5014 127.442 40.7294 128.002 40.7294 128.73C40.7294 129.234 40.6054 129.73 40.3574 130.218C40.1174 130.698 39.7374 131.21 39.2174 131.754L36.9374 134.178H40.7054C41.0094 134.178 41.1614 134.314 41.1614 134.586C41.1614 134.874 41.0094 135.018 40.7054 135.018H36.1574ZM45.4047 135.126C44.4367 135.126 43.7007 134.754 43.1967 134.01C42.6927 133.266 42.4407 132.19 42.4407 130.782C42.4407 129.366 42.6927 128.29 43.1967 127.554C43.7007 126.818 44.4367 126.45 45.4047 126.45C46.3807 126.45 47.1167 126.818 47.6127 127.554C48.1167 128.282 48.3687 129.354 48.3687 130.77C48.3687 132.186 48.1127 133.266 47.6007 134.01C47.0967 134.754 46.3647 135.126 45.4047 135.126ZM45.4047 134.274C46.0767 134.274 46.5727 133.99 46.8927 133.422C47.2207 132.846 47.3847 131.962 47.3847 130.77C47.3847 129.57 47.2247 128.694 46.9047 128.142C46.5847 127.582 46.0847 127.302 45.4047 127.302C44.7327 127.302 44.2327 127.582 43.9047 128.142C43.5847 128.702 43.4247 129.578 43.4247 130.77C43.4247 131.962 43.5847 132.846 43.9047 133.422C44.2327 133.99 44.7327 134.274 45.4047 134.274Z" fill="#333840"/>
<path opacity="0.7" d="M29.2741 105.018C28.9701 105.018 28.8181 104.874 28.8181 104.586C28.8181 104.314 28.9701 104.178 29.2741 104.178H30.8341V97.7103L29.6101 98.5263C29.4821 98.6063 29.3621 98.6303 29.2501 98.5983C29.1461 98.5583 29.0661 98.4903 29.0101 98.3943C28.9541 98.2983 28.9341 98.1943 28.9501 98.0823C28.9741 97.9703 29.0501 97.8703 29.1781 97.7823L30.8341 96.6903C30.9381 96.6263 31.0381 96.5743 31.1341 96.5343C31.2301 96.4943 31.3261 96.4743 31.4221 96.4743C31.5341 96.4743 31.6261 96.5103 31.6981 96.5823C31.7781 96.6463 31.8181 96.7503 31.8181 96.8943V104.178H33.2581C33.5621 104.178 33.7141 104.314 33.7141 104.586C33.7141 104.874 33.5621 105.018 33.2581 105.018H29.2741ZM39.6254 105.102C39.2974 105.102 39.1334 104.934 39.1334 104.598V103.206H35.6894C35.5294 103.206 35.4014 103.17 35.3054 103.098C35.2174 103.018 35.1734 102.906 35.1734 102.762C35.1734 102.618 35.2654 102.41 35.4494 102.138L39.1094 96.8103C39.2534 96.5863 39.4374 96.4743 39.6614 96.4743C39.7894 96.4743 39.8974 96.5183 39.9854 96.6063C40.0814 96.6863 40.1294 96.8103 40.1294 96.9783V102.366H41.0054C41.3174 102.366 41.4734 102.506 41.4734 102.786C41.4734 103.066 41.3174 103.206 41.0054 103.206H40.1294V104.598C40.1294 104.934 39.9614 105.102 39.6254 105.102ZM39.1334 102.366V98.1423L36.2414 102.366H39.1334ZM45.4047 105.126C44.4367 105.126 43.7007 104.754 43.1967 104.01C42.6927 103.266 42.4407 102.19 42.4407 100.782C42.4407 99.3663 42.6927 98.2903 43.1967 97.5543C43.7007 96.8183 44.4367 96.4503 45.4047 96.4503C46.3807 96.4503 47.1167 96.8183 47.6127 97.5543C48.1167 98.2823 48.3687 99.3543 48.3687 100.77C48.3687 102.186 48.1127 103.266 47.6007 104.01C47.0967 104.754 46.3647 105.126 45.4047 105.126ZM45.4047 104.274C46.0767 104.274 46.5727 103.99 46.8927 103.422C47.2207 102.846 47.3847 101.962 47.3847 100.77C47.3847 99.5703 47.2247 98.6943 46.9047 98.1423C46.5847 97.5823 46.0847 97.3023 45.4047 97.3023C44.7327 97.3023 44.2327 97.5823 43.9047 98.1423C43.5847 98.7023 43.4247 99.5783 43.4247 100.77C43.4247 101.962 43.5847 102.846 43.9047 103.422C44.2327 103.99 44.7327 104.274 45.4047 104.274Z" fill="#333840"/>
<rect x="73" y="233.018" width="40" height="81" fill="#5465FF"/>
<rect x="142" y="263.018" width="40" height="51" fill="#5465FF"/>
<rect x="211" y="211.018" width="40" height="103" fill="#5465FF"/>
<rect x="280" y="191.018" width="40" height="123" fill="#5465FF"/>
<rect x="349" y="244.018" width="40" height="70" fill="#5465FF"/>
<rect x="418" y="213.018" width="40" height="101" fill="#5465FF"/>
<rect x="487" y="144.018" width="40" height="170" fill="#5465FF"/>
<rect x="556" y="198.018" width="40" height="116" fill="#5465FF"/>
<rect x="625" y="110.018" width="40" height="204" fill="#5465FF"/>
<rect x="694" y="176.018" width="40" height="138" fill="#5465FF"/>
<path d="M258.91 371.144C258.238 371.144 257.603 371.064 257.006 370.906C256.418 370.738 255.909 370.495 255.48 370.178C255.331 370.075 255.242 369.954 255.214 369.814C255.186 369.674 255.2 369.543 255.256 369.422C255.321 369.3 255.415 369.221 255.536 369.184C255.657 369.137 255.797 369.165 255.956 369.268C256.376 369.576 256.824 369.795 257.3 369.926C257.776 370.056 258.313 370.122 258.91 370.122C259.75 370.122 260.371 369.968 260.772 369.66C261.183 369.342 261.388 368.927 261.388 368.414C261.388 368.003 261.239 367.676 260.94 367.434C260.651 367.191 260.161 367 259.47 366.86L258.014 366.566C257.137 366.379 256.479 366.076 256.04 365.656C255.611 365.226 255.396 364.657 255.396 363.948C255.396 363.36 255.545 362.846 255.844 362.408C256.152 361.969 256.577 361.628 257.118 361.386C257.659 361.143 258.285 361.022 258.994 361.022C259.582 361.022 260.128 361.106 260.632 361.274C261.145 361.432 261.607 361.675 262.018 362.002C262.149 362.104 262.223 362.226 262.242 362.366C262.27 362.496 262.251 362.618 262.186 362.73C262.121 362.842 262.027 362.916 261.906 362.954C261.785 362.982 261.64 362.944 261.472 362.842C261.099 362.552 260.707 362.347 260.296 362.226C259.895 362.104 259.456 362.044 258.98 362.044C258.243 362.044 257.655 362.216 257.216 362.562C256.777 362.898 256.558 363.346 256.558 363.906C256.558 364.354 256.693 364.708 256.964 364.97C257.244 365.231 257.697 365.422 258.322 365.544L259.778 365.852C260.721 366.048 261.416 366.346 261.864 366.748C262.321 367.14 262.55 367.676 262.55 368.358C262.55 368.908 262.401 369.394 262.102 369.814C261.813 370.234 261.393 370.56 260.842 370.794C260.301 371.027 259.657 371.144 258.91 371.144ZM266.319 371.144C265.853 371.144 265.433 371.055 265.059 370.878C264.695 370.691 264.406 370.439 264.191 370.122C263.977 369.804 263.869 369.45 263.869 369.058C263.869 368.563 263.995 368.171 264.247 367.882C264.509 367.592 264.933 367.387 265.521 367.266C266.119 367.135 266.931 367.07 267.957 367.07H268.405V366.636C268.405 366.057 268.284 365.642 268.041 365.39C267.808 365.128 267.43 364.998 266.907 364.998C266.581 364.998 266.249 365.04 265.913 365.124C265.587 365.208 265.246 365.343 264.891 365.53C264.733 365.614 264.597 365.632 264.485 365.586C264.383 365.53 264.308 365.446 264.261 365.334C264.224 365.212 264.224 365.091 264.261 364.97C264.308 364.839 264.401 364.741 264.541 364.676C264.943 364.47 265.344 364.321 265.745 364.228C266.156 364.134 266.543 364.088 266.907 364.088C267.785 364.088 268.433 364.302 268.853 364.732C269.283 365.161 269.497 365.828 269.497 366.734V370.528C269.497 370.92 269.325 371.116 268.979 371.116C268.615 371.116 268.433 370.92 268.433 370.528V369.842C268.256 370.243 267.981 370.56 267.607 370.794C267.243 371.027 266.814 371.144 266.319 371.144ZM266.501 370.29C267.061 370.29 267.519 370.098 267.873 369.716C268.228 369.324 268.405 368.829 268.405 368.232V367.812H267.971C267.215 367.812 266.618 367.849 266.179 367.924C265.75 367.989 265.447 368.11 265.269 368.288C265.101 368.456 265.017 368.689 265.017 368.988C265.017 369.37 265.148 369.683 265.409 369.926C265.68 370.168 266.044 370.29 266.501 370.29ZM273.673 371.144C273.001 371.144 272.488 370.943 272.133 370.542C271.778 370.131 271.601 369.538 271.601 368.764V361.624C271.601 361.241 271.788 361.05 272.161 361.05C272.544 361.05 272.735 361.241 272.735 361.624V368.68C272.735 369.678 273.132 370.178 273.925 370.178C274.009 370.178 274.084 370.173 274.149 370.164C274.214 370.154 274.28 370.15 274.345 370.15C274.448 370.14 274.518 370.164 274.555 370.22C274.602 370.276 274.625 370.388 274.625 370.556C274.625 370.873 274.466 371.055 274.149 371.102C274.074 371.12 273.995 371.13 273.911 371.13C273.827 371.139 273.748 371.144 273.673 371.144ZM278.741 371.144C277.668 371.144 276.819 370.831 276.193 370.206C275.568 369.571 275.255 368.712 275.255 367.63C275.255 366.93 275.395 366.314 275.675 365.782C275.955 365.24 276.338 364.825 276.823 364.536C277.318 364.237 277.887 364.088 278.531 364.088C279.455 364.088 280.179 364.386 280.701 364.984C281.224 365.572 281.485 366.384 281.485 367.42C281.485 367.709 281.322 367.854 280.995 367.854H276.361C276.399 368.628 276.623 369.221 277.033 369.632C277.444 370.033 278.013 370.234 278.741 370.234C279.049 370.234 279.362 370.196 279.679 370.122C279.997 370.038 280.305 369.893 280.603 369.688C280.818 369.548 280.995 369.52 281.135 369.604C281.285 369.688 281.359 369.818 281.359 369.996C281.369 370.164 281.275 370.313 281.079 370.444C280.771 370.668 280.403 370.84 279.973 370.962C279.553 371.083 279.143 371.144 278.741 371.144ZM278.559 364.928C277.915 364.928 277.407 365.128 277.033 365.53C276.66 365.931 276.441 366.458 276.375 367.112H280.505C280.477 366.421 280.295 365.884 279.959 365.502C279.633 365.119 279.166 364.928 278.559 364.928ZM285.423 371.144C285.003 371.144 284.578 371.092 284.149 370.99C283.729 370.878 283.337 370.7 282.973 370.458C282.805 370.355 282.721 370.224 282.721 370.066C282.73 369.898 282.795 369.767 282.917 369.674C283.038 369.58 283.192 369.58 283.379 369.674C283.743 369.898 284.093 370.056 284.429 370.15C284.774 370.234 285.115 370.276 285.451 370.276C285.983 370.276 286.384 370.178 286.655 369.982C286.925 369.786 287.061 369.52 287.061 369.184C287.061 368.922 286.972 368.717 286.795 368.568C286.617 368.409 286.337 368.288 285.955 368.204L284.681 367.924C283.523 367.672 282.945 367.074 282.945 366.132C282.945 365.516 283.187 365.021 283.673 364.648C284.167 364.274 284.811 364.088 285.605 364.088C286.006 364.088 286.393 364.144 286.767 364.256C287.14 364.358 287.476 364.526 287.775 364.76C287.933 364.872 288.003 365.007 287.985 365.166C287.966 365.324 287.891 365.45 287.761 365.544C287.639 365.628 287.49 365.614 287.313 365.502C287.033 365.315 286.748 365.18 286.459 365.096C286.169 365.002 285.885 364.956 285.605 364.956C285.082 364.956 284.685 365.058 284.415 365.264C284.144 365.469 284.009 365.74 284.009 366.076C284.009 366.598 284.354 366.934 285.045 367.084L286.319 367.35C286.916 367.48 287.369 367.69 287.677 367.98C287.985 368.26 288.139 368.642 288.139 369.128C288.139 369.753 287.891 370.248 287.397 370.612C286.902 370.966 286.244 371.144 285.423 371.144Z" fill="black"/>
<circle cx="243.5" cy="366.018" r="6" fill="#5465FF"/>
<path d="M339.91 371.144C339.238 371.144 338.603 371.064 338.006 370.906C337.418 370.738 336.909 370.495 336.48 370.178C336.331 370.075 336.242 369.954 336.214 369.814C336.186 369.674 336.2 369.543 336.256 369.422C336.321 369.3 336.415 369.221 336.536 369.184C336.657 369.137 336.797 369.165 336.956 369.268C337.376 369.576 337.824 369.795 338.3 369.926C338.776 370.056 339.313 370.122 339.91 370.122C340.75 370.122 341.371 369.968 341.772 369.66C342.183 369.342 342.388 368.927 342.388 368.414C342.388 368.003 342.239 367.676 341.94 367.434C341.651 367.191 341.161 367 340.47 366.86L339.014 366.566C338.137 366.379 337.479 366.076 337.04 365.656C336.611 365.226 336.396 364.657 336.396 363.948C336.396 363.36 336.545 362.846 336.844 362.408C337.152 361.969 337.577 361.628 338.118 361.386C338.659 361.143 339.285 361.022 339.994 361.022C340.582 361.022 341.128 361.106 341.632 361.274C342.145 361.432 342.607 361.675 343.018 362.002C343.149 362.104 343.223 362.226 343.242 362.366C343.27 362.496 343.251 362.618 343.186 362.73C343.121 362.842 343.027 362.916 342.906 362.954C342.785 362.982 342.64 362.944 342.472 362.842C342.099 362.552 341.707 362.347 341.296 362.226C340.895 362.104 340.456 362.044 339.98 362.044C339.243 362.044 338.655 362.216 338.216 362.562C337.777 362.898 337.558 363.346 337.558 363.906C337.558 364.354 337.693 364.708 337.964 364.97C338.244 365.231 338.697 365.422 339.322 365.544L340.778 365.852C341.721 366.048 342.416 366.346 342.864 366.748C343.321 367.14 343.55 367.676 343.55 368.358C343.55 368.908 343.401 369.394 343.102 369.814C342.813 370.234 342.393 370.56 341.842 370.794C341.301 371.027 340.657 371.144 339.91 371.144ZM348.243 371.144C347.17 371.144 346.321 370.831 345.695 370.206C345.07 369.571 344.757 368.712 344.757 367.63C344.757 366.93 344.897 366.314 345.177 365.782C345.457 365.24 345.84 364.825 346.325 364.536C346.82 364.237 347.389 364.088 348.033 364.088C348.957 364.088 349.681 364.386 350.203 364.984C350.726 365.572 350.987 366.384 350.987 367.42C350.987 367.709 350.824 367.854 350.497 367.854H345.863C345.901 368.628 346.125 369.221 346.535 369.632C346.946 370.033 347.515 370.234 348.243 370.234C348.551 370.234 348.864 370.196 349.181 370.122C349.499 370.038 349.807 369.893 350.105 369.688C350.32 369.548 350.497 369.52 350.637 369.604C350.787 369.688 350.861 369.818 350.861 369.996C350.871 370.164 350.777 370.313 350.581 370.444C350.273 370.668 349.905 370.84 349.475 370.962C349.055 371.083 348.645 371.144 348.243 371.144ZM348.061 364.928C347.417 364.928 346.909 365.128 346.535 365.53C346.162 365.931 345.943 366.458 345.877 367.112H350.007C349.979 366.421 349.797 365.884 349.461 365.502C349.135 365.119 348.668 364.928 348.061 364.928ZM354.924 371.144C354.504 371.144 354.08 371.092 353.65 370.99C353.23 370.878 352.838 370.7 352.474 370.458C352.306 370.355 352.222 370.224 352.222 370.066C352.232 369.898 352.297 369.767 352.418 369.674C352.54 369.58 352.694 369.58 352.88 369.674C353.244 369.898 353.594 370.056 353.93 370.15C354.276 370.234 354.616 370.276 354.952 370.276C355.484 370.276 355.886 370.178 356.156 369.982C356.427 369.786 356.562 369.52 356.562 369.184C356.562 368.922 356.474 368.717 356.296 368.568C356.119 368.409 355.839 368.288 355.456 368.204L354.182 367.924C353.025 367.672 352.446 367.074 352.446 366.132C352.446 365.516 352.689 365.021 353.174 364.648C353.669 364.274 354.313 364.088 355.106 364.088C355.508 364.088 355.895 364.144 356.268 364.256C356.642 364.358 356.978 364.526 357.276 364.76C357.435 364.872 357.505 365.007 357.486 365.166C357.468 365.324 357.393 365.45 357.262 365.544C357.141 365.628 356.992 365.614 356.814 365.502C356.534 365.315 356.25 365.18 355.96 365.096C355.671 365.002 355.386 364.956 355.106 364.956C354.584 364.956 354.187 365.058 353.916 365.264C353.646 365.469 353.51 365.74 353.51 366.076C353.51 366.598 353.856 366.934 354.546 367.084L355.82 367.35C356.418 367.48 356.87 367.69 357.178 367.98C357.486 368.26 357.64 368.642 357.64 369.128C357.64 369.753 357.393 370.248 356.898 370.612C356.404 370.966 355.746 371.144 354.924 371.144ZM361.665 371.144C361.245 371.144 360.82 371.092 360.391 370.99C359.971 370.878 359.579 370.7 359.215 370.458C359.047 370.355 358.963 370.224 358.963 370.066C358.972 369.898 359.037 369.767 359.159 369.674C359.28 369.58 359.434 369.58 359.621 369.674C359.985 369.898 360.335 370.056 360.671 370.15C361.016 370.234 361.357 370.276 361.693 370.276C362.225 370.276 362.626 370.178 362.897 369.982C363.167 369.786 363.303 369.52 363.303 369.184C363.303 368.922 363.214 368.717 363.037 368.568C362.859 368.409 362.579 368.288 362.197 368.204L360.923 367.924C359.765 367.672 359.187 367.074 359.187 366.132C359.187 365.516 359.429 365.021 359.915 364.648C360.409 364.274 361.053 364.088 361.847 364.088C362.248 364.088 362.635 364.144 363.009 364.256C363.382 364.358 363.718 364.526 364.017 364.76C364.175 364.872 364.245 365.007 364.227 365.166C364.208 365.324 364.133 365.45 364.003 365.544C363.881 365.628 363.732 365.614 363.555 365.502C363.275 365.315 362.99 365.18 362.701 365.096C362.411 365.002 362.127 364.956 361.847 364.956C361.324 364.956 360.927 365.058 360.657 365.264C360.386 365.469 360.251 365.74 360.251 366.076C360.251 366.598 360.596 366.934 361.287 367.084L362.561 367.35C363.158 367.48 363.611 367.69 363.919 367.98C364.227 368.26 364.381 368.642 364.381 369.128C364.381 369.753 364.133 370.248 363.639 370.612C363.144 370.966 362.486 371.144 361.665 371.144ZM366.669 362.576C366.174 362.576 365.927 362.342 365.927 361.876C365.927 361.418 366.174 361.19 366.669 361.19C367.164 361.19 367.411 361.418 367.411 361.876C367.411 362.342 367.164 362.576 366.669 362.576ZM366.669 371.088C366.296 371.088 366.109 370.882 366.109 370.472V364.746C366.109 364.344 366.296 364.144 366.669 364.144C367.052 364.144 367.243 364.344 367.243 364.746V370.472C367.243 370.882 367.052 371.088 366.669 371.088ZM372.191 371.144C371.528 371.144 370.954 370.999 370.469 370.71C369.983 370.42 369.605 370.014 369.335 369.492C369.073 368.96 368.943 368.334 368.943 367.616C368.943 366.897 369.073 366.276 369.335 365.754C369.605 365.222 369.983 364.811 370.469 364.522C370.954 364.232 371.528 364.088 372.191 364.088C372.844 364.088 373.413 364.232 373.899 364.522C374.393 364.811 374.771 365.222 375.033 365.754C375.303 366.276 375.439 366.897 375.439 367.616C375.439 368.334 375.303 368.96 375.033 369.492C374.771 370.014 374.393 370.42 373.899 370.71C373.413 370.999 372.844 371.144 372.191 371.144ZM372.191 370.234C372.825 370.234 373.334 370.01 373.717 369.562C374.099 369.104 374.291 368.456 374.291 367.616C374.291 366.766 374.099 366.118 373.717 365.67C373.334 365.222 372.825 364.998 372.191 364.998C371.547 364.998 371.033 365.222 370.651 365.67C370.277 366.118 370.091 366.766 370.091 367.616C370.091 368.456 370.277 369.104 370.651 369.562C371.033 370.01 371.547 370.234 372.191 370.234ZM377.702 371.116C377.329 371.116 377.142 370.92 377.142 370.528V364.69C377.142 364.307 377.324 364.116 377.688 364.116C378.061 364.116 378.248 364.307 378.248 364.69V365.376C378.472 364.946 378.789 364.624 379.2 364.41C379.611 364.195 380.073 364.088 380.586 364.088C382.201 364.088 383.008 364.984 383.008 366.776V370.528C383.008 370.92 382.821 371.116 382.448 371.116C382.065 371.116 381.874 370.92 381.874 370.528V366.846C381.874 366.211 381.748 365.749 381.496 365.46C381.253 365.161 380.861 365.012 380.32 365.012C379.695 365.012 379.195 365.208 378.822 365.6C378.458 365.982 378.276 366.496 378.276 367.14V370.528C378.276 370.92 378.085 371.116 377.702 371.116Z" fill="black"/>
<circle cx="324.5" cy="366.018" r="6" fill="#E5E8EC"/>
<path d="M435.988 371.144C435.017 371.144 434.187 370.938 433.496 370.528C432.805 370.117 432.273 369.534 431.9 368.778C431.536 368.022 431.354 367.121 431.354 366.076C431.354 365.04 431.536 364.144 431.9 363.388C432.273 362.632 432.805 362.048 433.496 361.638C434.187 361.227 435.017 361.022 435.988 361.022C436.567 361.022 437.117 361.106 437.64 361.274C438.163 361.442 438.615 361.68 438.998 361.988C439.157 362.1 439.245 362.23 439.264 362.38C439.292 362.529 439.269 362.664 439.194 362.786C439.119 362.898 439.012 362.972 438.872 363.01C438.741 363.038 438.592 362.991 438.424 362.87C437.761 362.338 436.959 362.072 436.016 362.072C434.905 362.072 434.056 362.422 433.468 363.122C432.88 363.822 432.586 364.806 432.586 366.076C432.586 367.354 432.88 368.344 433.468 369.044C434.056 369.744 434.905 370.094 436.016 370.094C436.959 370.094 437.771 369.823 438.452 369.282C438.62 369.17 438.769 369.128 438.9 369.156C439.04 369.184 439.143 369.254 439.208 369.366C439.283 369.478 439.311 369.604 439.292 369.744C439.273 369.884 439.194 370.01 439.054 370.122C438.653 370.458 438.191 370.714 437.668 370.892C437.145 371.06 436.585 371.144 435.988 371.144ZM443.32 371.144C442.657 371.144 442.083 370.999 441.598 370.71C441.112 370.42 440.734 370.014 440.464 369.492C440.202 368.96 440.072 368.334 440.072 367.616C440.072 366.897 440.202 366.276 440.464 365.754C440.734 365.222 441.112 364.811 441.598 364.522C442.083 364.232 442.657 364.088 443.32 364.088C443.973 364.088 444.542 364.232 445.028 364.522C445.522 364.811 445.9 365.222 446.162 365.754C446.432 366.276 446.568 366.897 446.568 367.616C446.568 368.334 446.432 368.96 446.162 369.492C445.9 370.014 445.522 370.42 445.028 370.71C444.542 370.999 443.973 371.144 443.32 371.144ZM443.32 370.234C443.954 370.234 444.463 370.01 444.846 369.562C445.228 369.104 445.42 368.456 445.42 367.616C445.42 366.766 445.228 366.118 444.846 365.67C444.463 365.222 443.954 364.998 443.32 364.998C442.676 364.998 442.162 365.222 441.78 365.67C441.406 366.118 441.22 366.766 441.22 367.616C441.22 368.456 441.406 369.104 441.78 369.562C442.162 370.01 442.676 370.234 443.32 370.234ZM448.831 371.116C448.458 371.116 448.271 370.92 448.271 370.528V364.69C448.271 364.307 448.453 364.116 448.817 364.116C449.19 364.116 449.377 364.307 449.377 364.69V365.376C449.601 364.946 449.918 364.624 450.329 364.41C450.74 364.195 451.202 364.088 451.715 364.088C453.33 364.088 454.137 364.984 454.137 366.776V370.528C454.137 370.92 453.95 371.116 453.577 371.116C453.194 371.116 453.003 370.92 453.003 370.528V366.846C453.003 366.211 452.877 365.749 452.625 365.46C452.382 365.161 451.99 365.012 451.449 365.012C450.824 365.012 450.324 365.208 449.951 365.6C449.587 365.982 449.405 366.496 449.405 367.14V370.528C449.405 370.92 449.214 371.116 448.831 371.116ZM458.694 371.116C458.367 371.116 458.124 370.934 457.966 370.57L455.544 364.914C455.45 364.699 455.446 364.512 455.53 364.354C455.614 364.195 455.782 364.116 456.034 364.116C456.295 364.116 456.486 364.265 456.608 364.564L458.722 369.73L460.864 364.564C460.929 364.396 461.004 364.279 461.088 364.214C461.172 364.148 461.293 364.116 461.452 364.116C461.666 364.116 461.811 364.195 461.886 364.354C461.96 364.512 461.956 364.694 461.872 364.9L459.422 370.57C459.272 370.934 459.03 371.116 458.694 371.116ZM466.335 371.144C465.262 371.144 464.412 370.831 463.787 370.206C463.162 369.571 462.849 368.712 462.849 367.63C462.849 366.93 462.989 366.314 463.269 365.782C463.549 365.24 463.932 364.825 464.417 364.536C464.912 364.237 465.481 364.088 466.125 364.088C467.049 364.088 467.772 364.386 468.295 364.984C468.818 365.572 469.079 366.384 469.079 367.42C469.079 367.709 468.916 367.854 468.589 367.854H463.955C463.992 368.628 464.216 369.221 464.627 369.632C465.038 370.033 465.607 370.234 466.335 370.234C466.643 370.234 466.956 370.196 467.273 370.122C467.59 370.038 467.898 369.893 468.197 369.688C468.412 369.548 468.589 369.52 468.729 369.604C468.878 369.688 468.953 369.818 468.953 369.996C468.962 370.164 468.869 370.313 468.673 370.444C468.365 370.668 467.996 370.84 467.567 370.962C467.147 371.083 466.736 371.144 466.335 371.144ZM466.153 364.928C465.509 364.928 465 365.128 464.627 365.53C464.254 365.931 464.034 366.458 463.969 367.112H468.099C468.071 366.421 467.889 365.884 467.553 365.502C467.226 365.119 466.76 364.928 466.153 364.928ZM471.294 371.116C470.912 371.116 470.72 370.92 470.72 370.528V364.69C470.72 364.307 470.902 364.116 471.266 364.116C471.64 364.116 471.826 364.307 471.826 364.69V365.432C472.013 365.002 472.302 364.676 472.694 364.452C473.086 364.218 473.553 364.092 474.094 364.074C474.393 364.046 474.552 364.195 474.57 364.522C474.598 364.848 474.43 365.03 474.066 365.068L473.842 365.096C473.198 365.152 472.708 365.357 472.372 365.712C472.036 366.057 471.868 366.533 471.868 367.14V370.528C471.868 370.92 471.677 371.116 471.294 371.116ZM477.965 371.144C477.545 371.144 477.121 371.092 476.691 370.99C476.271 370.878 475.879 370.7 475.515 370.458C475.347 370.355 475.263 370.224 475.263 370.066C475.273 369.898 475.338 369.767 475.459 369.674C475.581 369.58 475.735 369.58 475.921 369.674C476.285 369.898 476.635 370.056 476.971 370.15C477.317 370.234 477.657 370.276 477.993 370.276C478.525 370.276 478.927 370.178 479.197 369.982C479.468 369.786 479.603 369.52 479.603 369.184C479.603 368.922 479.515 368.717 479.337 368.568C479.16 368.409 478.88 368.288 478.497 368.204L477.223 367.924C476.066 367.672 475.487 367.074 475.487 366.132C475.487 365.516 475.73 365.021 476.215 364.648C476.71 364.274 477.354 364.088 478.147 364.088C478.549 364.088 478.936 364.144 479.309 364.256C479.683 364.358 480.019 364.526 480.317 364.76C480.476 364.872 480.546 365.007 480.527 365.166C480.509 365.324 480.434 365.45 480.303 365.544C480.182 365.628 480.033 365.614 479.855 365.502C479.575 365.315 479.291 365.18 479.001 365.096C478.712 365.002 478.427 364.956 478.147 364.956C477.625 364.956 477.228 365.058 476.957 365.264C476.687 365.469 476.551 365.74 476.551 366.076C476.551 366.598 476.897 366.934 477.587 367.084L478.861 367.35C479.459 367.48 479.911 367.69 480.219 367.98C480.527 368.26 480.681 368.642 480.681 369.128C480.681 369.753 480.434 370.248 479.939 370.612C479.445 370.966 478.787 371.144 477.965 371.144ZM482.97 362.576C482.475 362.576 482.228 362.342 482.228 361.876C482.228 361.418 482.475 361.19 482.97 361.19C483.464 361.19 483.712 361.418 483.712 361.876C483.712 362.342 483.464 362.576 482.97 362.576ZM482.97 371.088C482.596 371.088 482.41 370.882 482.41 370.472V364.746C482.41 364.344 482.596 364.144 482.97 364.144C483.352 364.144 483.544 364.344 483.544 364.746V370.472C483.544 370.882 483.352 371.088 482.97 371.088ZM488.492 371.144C487.829 371.144 487.255 370.999 486.77 370.71C486.284 370.42 485.906 370.014 485.636 369.492C485.374 368.96 485.244 368.334 485.244 367.616C485.244 366.897 485.374 366.276 485.636 365.754C485.906 365.222 486.284 364.811 486.77 364.522C487.255 364.232 487.829 364.088 488.492 364.088C489.145 364.088 489.714 364.232 490.2 364.522C490.694 364.811 491.072 365.222 491.334 365.754C491.604 366.276 491.74 366.897 491.74 367.616C491.74 368.334 491.604 368.96 491.334 369.492C491.072 370.014 490.694 370.42 490.2 370.71C489.714 370.999 489.145 371.144 488.492 371.144ZM488.492 370.234C489.126 370.234 489.635 370.01 490.018 369.562C490.4 369.104 490.592 368.456 490.592 367.616C490.592 366.766 490.4 366.118 490.018 365.67C489.635 365.222 489.126 364.998 488.492 364.998C487.848 364.998 487.334 365.222 486.952 365.67C486.578 366.118 486.392 366.766 486.392 367.616C486.392 368.456 486.578 369.104 486.952 369.562C487.334 370.01 487.848 370.234 488.492 370.234ZM494.003 371.116C493.63 371.116 493.443 370.92 493.443 370.528V364.69C493.443 364.307 493.625 364.116 493.989 364.116C494.362 364.116 494.549 364.307 494.549 364.69V365.376C494.773 364.946 495.09 364.624 495.501 364.41C495.912 364.195 496.374 364.088 496.887 364.088C498.502 364.088 499.309 364.984 499.309 366.776V370.528C499.309 370.92 499.122 371.116 498.749 371.116C498.366 371.116 498.175 370.92 498.175 370.528V366.846C498.175 366.211 498.049 365.749 497.797 365.46C497.554 365.161 497.162 365.012 496.621 365.012C495.996 365.012 495.496 365.208 495.123 365.6C494.759 365.982 494.577 366.496 494.577 367.14V370.528C494.577 370.92 494.386 371.116 494.003 371.116ZM505.737 371.116C505.355 371.116 505.163 370.915 505.163 370.514V361.736C505.163 361.344 505.359 361.148 505.751 361.148H509.069C510.133 361.148 510.945 361.395 511.505 361.89C512.075 362.384 512.359 363.089 512.359 364.004C512.359 364.732 512.159 365.329 511.757 365.796C511.365 366.262 510.805 366.566 510.077 366.706C510.507 366.855 510.875 367.219 511.183 367.798L512.527 370.304C512.63 370.5 512.649 370.686 512.583 370.864C512.518 371.032 512.369 371.116 512.135 371.116C511.977 371.116 511.846 371.083 511.743 371.018C511.641 370.943 511.552 370.831 511.477 370.682L509.951 367.854C509.737 367.452 509.489 367.186 509.209 367.056C508.929 366.916 508.561 366.846 508.103 366.846H506.311V370.514C506.311 370.915 506.12 371.116 505.737 371.116ZM506.311 365.936H508.901C510.451 365.936 511.225 365.292 511.225 364.004C511.225 362.734 510.451 362.1 508.901 362.1H506.311V365.936ZM516.489 371.144C516.023 371.144 515.603 371.055 515.229 370.878C514.865 370.691 514.576 370.439 514.361 370.122C514.147 369.804 514.039 369.45 514.039 369.058C514.039 368.563 514.165 368.171 514.417 367.882C514.679 367.592 515.103 367.387 515.691 367.266C516.289 367.135 517.101 367.07 518.127 367.07H518.575V366.636C518.575 366.057 518.454 365.642 518.211 365.39C517.978 365.128 517.6 364.998 517.077 364.998C516.751 364.998 516.419 365.04 516.083 365.124C515.757 365.208 515.416 365.343 515.061 365.53C514.903 365.614 514.767 365.632 514.655 365.586C514.553 365.53 514.478 365.446 514.431 365.334C514.394 365.212 514.394 365.091 514.431 364.97C514.478 364.839 514.571 364.741 514.711 364.676C515.113 364.47 515.514 364.321 515.915 364.228C516.326 364.134 516.713 364.088 517.077 364.088C517.955 364.088 518.603 364.302 519.023 364.732C519.453 365.161 519.667 365.828 519.667 366.734V370.528C519.667 370.92 519.495 371.116 519.149 371.116C518.785 371.116 518.603 370.92 518.603 370.528V369.842C518.426 370.243 518.151 370.56 517.777 370.794C517.413 371.027 516.984 371.144 516.489 371.144ZM516.671 370.29C517.231 370.29 517.689 370.098 518.043 369.716C518.398 369.324 518.575 368.829 518.575 368.232V367.812H518.141C517.385 367.812 516.788 367.849 516.349 367.924C515.92 367.989 515.617 368.11 515.439 368.288C515.271 368.456 515.187 368.689 515.187 368.988C515.187 369.37 515.318 369.683 515.579 369.926C515.85 370.168 516.214 370.29 516.671 370.29ZM524.501 371.144C523.698 371.144 523.096 370.934 522.695 370.514C522.294 370.084 522.093 369.468 522.093 368.666V365.096H521.155C520.828 365.096 520.665 364.946 520.665 364.648C520.665 364.358 520.828 364.214 521.155 364.214H522.093V362.604C522.093 362.221 522.284 362.03 522.667 362.03C523.04 362.03 523.227 362.221 523.227 362.604V364.214H524.991C525.318 364.214 525.481 364.358 525.481 364.648C525.481 364.946 525.318 365.096 524.991 365.096H523.227V368.554C523.227 369.086 523.339 369.492 523.563 369.772C523.787 370.042 524.151 370.178 524.655 370.178C524.832 370.178 524.982 370.159 525.103 370.122C525.224 370.084 525.332 370.066 525.425 370.066C525.509 370.056 525.579 370.084 525.635 370.15C525.691 370.215 525.719 370.327 525.719 370.486C525.719 370.598 525.696 370.7 525.649 370.794C525.612 370.887 525.542 370.952 525.439 370.99C525.327 371.027 525.178 371.06 524.991 371.088C524.814 371.125 524.65 371.144 524.501 371.144ZM529.663 371.144C528.59 371.144 527.741 370.831 527.115 370.206C526.49 369.571 526.177 368.712 526.177 367.63C526.177 366.93 526.317 366.314 526.597 365.782C526.877 365.24 527.26 364.825 527.745 364.536C528.24 364.237 528.809 364.088 529.453 364.088C530.377 364.088 531.101 364.386 531.623 364.984C532.146 365.572 532.407 366.384 532.407 367.42C532.407 367.709 532.244 367.854 531.917 367.854H527.283C527.321 368.628 527.545 369.221 527.955 369.632C528.366 370.033 528.935 370.234 529.663 370.234C529.971 370.234 530.284 370.196 530.601 370.122C530.919 370.038 531.227 369.893 531.525 369.688C531.74 369.548 531.917 369.52 532.057 369.604C532.207 369.688 532.281 369.818 532.281 369.996C532.291 370.164 532.197 370.313 532.001 370.444C531.693 370.668 531.325 370.84 530.895 370.962C530.475 371.083 530.065 371.144 529.663 371.144ZM529.481 364.928C528.837 364.928 528.329 365.128 527.955 365.53C527.582 365.931 527.363 366.458 527.297 367.112H531.427C531.399 366.421 531.217 365.884 530.881 365.502C530.555 365.119 530.088 364.928 529.481 364.928Z" fill="black"/>
<circle cx="419.5" cy="366.018" r="6" fill="#08AA58"/>
<rect x="8.5" y="3.5" width="754" height="397.018" rx="4.5" stroke="#EEF0F2" shape-rendering="crispEdges"/>
</g>
<defs>
<filter id="filter0_d_813_15914" x="0" y="0" width="771" height="414.018" filterUnits="userSpaceOnUse" color-interpolation-filters="sRGB">
<feFlood flood-opacity="0" result="BackgroundImageFix"/>
<feColorMatrix in="SourceAlpha" type="matrix" values="0 0 0 0 0 0 0 0 0 0 0 0 0 0 0 0 0 0 127 0" result="hardAlpha"/>
<feOffset dy="5"/>
<feGaussianBlur stdDeviation="4"/>
<feComposite in2="hardAlpha" operator="out"/>
<feColorMatrix type="matrix" values="0 0 0 0 0.8 0 0 0 0 0.8 0 0 0 0 0.8 0 0 0 0.15 0"/>
<feBlend mode="normal" in2="BackgroundImageFix" result="effect1_dropShadow_813_15914"/>
<feBlend mode="normal" in="SourceGraphic" in2="effect1_dropShadow_813_15914" result="shape"/>
</filter>
</defs>
</svg>
