<svg width="172" height="173" viewBox="0 0 172 173" fill="none" xmlns="http://www.w3.org/2000/svg">
<path d="M98.6176 4.31732C98.8983 2.49938 97.6526 0.791299 95.8251 0.581128C79.9542 -1.24416 63.8639 1.38584 49.3702 8.20894C34.8766 15.032 22.5973 25.7574 13.8916 39.1525C12.8892 40.6949 13.4119 42.7434 14.9919 43.6853C16.5719 44.6273 18.6105 44.1055 19.6179 42.5664C27.6407 30.3097 38.9146 20.4937 52.2075 14.2359C65.5004 7.97802 80.2493 5.54345 94.8076 7.16982C96.6358 7.37405 98.3368 6.13526 98.6176 4.31732Z" fill="#F2F6FC"/>
<path d="M19.5904 36.7842C18.1127 35.6886 16.0208 35.9951 14.9833 37.5141C4.65552 52.6349 -0.593166 70.6867 0.053269 89.0445C0.738841 108.514 8.01433 127.173 20.6885 141.968C33.3627 156.763 50.6845 166.816 69.8177 170.482C88.951 174.148 108.762 171.209 126.007 162.146C143.252 153.083 156.909 138.434 164.742 120.597C172.575 102.76 174.12 82.7916 169.124 63.962C164.127 45.1323 152.886 28.5568 137.24 16.9496C122.487 6.00498 104.643 0.0890422 86.332 0.0186717C84.4925 0.0116025 83.0536 1.56064 83.1178 3.39901C83.1819 5.23738 84.7247 6.66837 86.5641 6.68141C103.366 6.80058 119.73 12.254 133.271 22.2995C147.705 33.0077 158.076 48.2992 162.685 65.6704C167.294 83.0415 165.869 101.463 158.643 117.919C151.417 134.374 138.817 147.889 122.908 156.249C106.999 164.61 88.7224 167.321 71.0712 163.939C53.4199 160.558 37.4398 151.283 25.7474 137.634C14.0549 123.986 7.34299 106.771 6.71052 88.8101C6.11719 71.9604 10.9072 55.3901 20.339 41.4843C21.3716 39.9619 21.0681 37.8797 19.5904 36.7842Z" fill="#4879F5"/>
<path d="M91.496 17.2863C91.6302 15.6078 90.3782 14.1316 88.6956 14.0685C79.245 13.7145 69.8067 15.2255 60.923 18.5263C51.0856 22.1814 42.1661 27.9429 34.7892 35.4072C27.4124 42.8715 21.7564 51.8582 18.2174 61.738C15.0215 70.66 13.6218 80.1155 14.0872 89.5612C14.1701 91.243 15.661 92.4775 17.3377 92.3235C19.0145 92.1695 20.2415 90.6853 20.1652 89.0032C19.7771 80.4433 21.0617 71.8794 23.9578 63.7943C27.1971 54.7512 32.3741 46.5256 39.1262 39.6934C45.8784 32.8612 54.0424 27.5877 63.0467 24.2421C71.0972 21.2509 79.6453 19.8654 88.2092 20.1527C89.8921 20.2092 91.3617 18.9647 91.496 17.2863Z" fill="#F2F6FC"/>
<path d="M17.5657 77.5912C15.8945 77.3854 14.3661 78.5733 14.2313 80.2517C13.1343 93.9027 15.9528 107.607 22.3876 119.744C29.2992 132.781 40.0492 143.379 53.1825 150.104C66.3158 156.829 81.1983 159.357 95.8157 157.346C110.433 155.334 124.08 148.88 134.908 138.857C145.737 128.835 153.224 115.727 156.358 101.308C159.491 86.8896 158.119 71.8564 152.427 58.2433C146.735 44.6302 136.998 33.0946 124.534 25.1977C112.93 17.8456 99.4836 13.978 85.7885 14.0184C84.1047 14.0233 82.8024 15.4555 82.8787 17.1376C82.9549 18.8196 84.3809 20.114 86.0647 20.1157C98.5106 20.1278 110.722 23.6652 121.271 30.3485C132.679 37.5766 141.592 48.1353 146.801 60.5955C152.011 73.0558 153.267 86.8158 150.399 100.013C147.531 113.211 140.678 125.209 130.766 134.383C120.855 143.557 108.364 149.464 94.9844 151.305C81.6049 153.146 67.9828 150.832 55.9618 144.677C43.9407 138.521 34.1012 128.82 27.7749 116.888C21.9255 105.855 19.3408 93.4072 20.2891 80.9975C20.4174 79.3186 19.2369 77.7969 17.5657 77.5912Z" fill="#44D2F1"/>
<path d="M34.4037 109.036C33.1901 109.588 31.7538 109.053 31.2527 107.818C27.6355 98.8999 26.2895 89.2089 27.3541 79.6189C28.5076 69.228 32.4482 59.3421 38.759 51.007C45.0699 42.6719 53.5163 36.1976 63.2048 32.2689C72.1465 28.6431 81.8393 27.31 91.4041 28.3727C92.7291 28.5199 93.6333 29.7574 93.4311 31.0751C93.2289 32.3929 91.9969 33.2915 90.6713 33.1493C81.9675 32.2156 73.1542 33.4442 65.019 36.743C56.137 40.3447 48.3937 46.2801 42.6081 53.9214C36.8226 61.5626 33.21 70.6256 32.1525 80.1516C31.184 88.8765 32.392 97.6927 35.6515 105.817C36.1479 107.054 35.6172 108.484 34.4037 109.036Z" fill="#F2F6FC"/>
<path d="M81.9399 30.5163C81.8665 29.1852 82.8865 28.0413 84.2195 28.0233C94.2606 27.8881 104.18 30.3627 112.999 35.2236C122.523 40.4734 130.379 48.2953 135.671 57.7964C140.963 67.2975 143.476 78.095 142.926 88.9563C142.375 99.8177 138.781 110.305 132.555 119.222C126.329 128.139 117.722 135.126 107.715 139.385C97.7083 143.644 86.7058 145.004 75.9633 143.31C65.2208 141.615 55.1711 136.935 46.9613 129.802C39.3598 123.198 33.6193 114.739 30.2869 105.266C29.8444 104.008 30.5669 102.657 31.8419 102.267C33.1168 101.877 34.4611 102.597 34.9082 103.853C37.9729 112.461 43.2096 120.147 50.1276 126.158C57.654 132.696 66.8672 136.987 76.7155 138.541C86.5638 140.094 96.6505 138.847 105.824 134.943C114.998 131.038 122.889 124.633 128.597 116.458C134.304 108.284 137.599 98.669 138.104 88.7118C138.609 78.7545 136.304 68.8558 131.453 60.1456C126.602 51.4354 119.399 44.2646 110.668 39.4517C102.642 35.0279 93.622 32.76 84.4854 32.8485C83.1523 32.8614 82.0133 31.8475 81.9399 30.5163Z" fill="#20C745"/>
<path d="M94.2728 44.5315C94.5727 43.1896 93.7285 41.8513 92.372 41.626C83.1023 40.0864 73.5592 41.485 65.0944 45.6601C55.8836 50.2031 48.5039 57.7601 44.1809 67.0761C39.8578 76.3922 38.8515 86.9067 41.329 96.8736C43.6058 106.033 48.6991 114.224 55.8597 120.309C56.9075 121.199 58.4745 120.98 59.3056 119.884C60.1368 118.789 59.9167 117.233 58.875 116.335C52.6168 110.942 48.1641 103.729 46.1615 95.6724C43.9581 86.8084 44.8531 77.4573 48.6978 69.1722C52.5425 60.887 59.1056 54.1662 67.2971 50.126C74.7425 46.4537 83.1259 45.1967 91.2844 46.4941C92.6424 46.71 93.9728 45.8735 94.2728 44.5315Z" fill="#F2F6FC"/>
<path d="M53.0683 114.08C52.0355 114.988 51.9292 116.567 52.8927 117.548C57.6426 122.385 63.4323 126.094 69.8352 128.386C77.0208 130.958 84.7424 131.66 92.2741 130.426C99.8057 129.193 106.9 126.064 112.889 121.334C118.879 116.604 123.567 110.428 126.513 103.387C129.459 96.3468 130.565 88.6726 129.729 81.0866C128.893 73.5006 126.141 66.2519 121.732 60.0222C117.323 53.7925 111.402 48.7865 104.526 45.4749C98.3986 42.5241 91.6925 41.005 84.9132 41.0181C83.5382 41.0208 82.4886 42.2047 82.5672 43.5775C82.6459 44.9503 83.8232 45.9913 85.1983 45.9981C91.1335 46.0275 96.999 47.377 102.365 49.9613C108.48 52.9064 113.746 57.3585 117.667 62.8988C121.588 68.4392 124.036 74.8857 124.779 81.6323C125.523 88.3789 124.539 95.2038 121.919 101.465C119.299 107.727 115.13 113.219 109.803 117.426C104.476 121.632 98.1673 124.415 91.4691 125.512C84.7709 126.609 77.9037 125.985 71.5133 123.698C65.9057 121.69 60.8269 118.461 56.6392 114.255C55.6691 113.28 54.1012 113.173 53.0683 114.08Z" fill="#F4A74B"/>
<path d="M93.3415 57.0599C93.63 55.9219 92.9421 54.7581 91.7874 54.5458C87.7463 53.8026 83.5929 53.8436 79.5553 54.6738C74.8223 55.6469 70.3712 57.6792 66.5359 60.6183C62.7005 63.5574 59.5806 67.3268 57.4101 71.6438C55.2396 75.9609 54.075 80.7134 54.0035 85.5448C53.932 90.3762 54.9556 95.1611 56.9975 99.5405C59.0394 103.92 62.0465 107.78 65.7932 110.831C69.5399 113.882 73.929 116.045 78.6311 117.158C82.6425 118.107 86.7928 118.271 90.8541 117.648C92.0146 117.47 92.7366 116.327 92.4818 115.181C92.2271 114.035 91.092 113.321 89.9298 113.487C86.4973 113.978 82.9966 113.822 79.6101 113.021C75.5327 112.056 71.7268 110.18 68.4779 107.534C65.2289 104.889 62.6214 101.541 60.8508 97.7439C59.0802 93.9464 58.1926 89.7972 58.2545 85.6077C58.3165 81.4182 59.3264 77.2971 61.2086 73.5536C63.0907 69.8101 65.7961 66.5415 69.1219 63.9929C72.4476 61.4443 76.3074 59.682 80.4115 58.8382C83.8202 58.1373 87.324 58.0851 90.7405 58.6775C91.8972 58.8781 93.053 58.198 93.3415 57.0599Z" fill="#F2F6FC"/>
<path d="M86 115.892C86 117.066 86.9528 118.025 88.1242 117.947C91.7865 117.704 95.385 116.832 98.7606 115.364C102.787 113.613 106.41 111.052 109.404 107.841C112.398 104.63 114.7 100.837 116.165 96.6981C117.631 92.5593 118.228 88.1632 117.922 83.7833C117.615 79.4035 116.411 75.1336 114.383 71.2393C112.355 67.345 109.548 63.9097 106.135 61.147C102.723 58.3843 98.7784 56.3534 94.5473 55.1807C91.0002 54.1975 87.3152 53.8351 83.6548 54.1041C82.4839 54.1902 81.674 55.2726 81.8376 56.4352C82.0012 57.5978 83.0764 58.3991 84.2481 58.3249C87.3294 58.13 90.4269 58.4504 93.4117 59.2777C97.0807 60.2947 100.501 62.0557 103.46 64.4514C106.419 66.847 108.854 69.8259 110.612 73.2028C112.37 76.5797 113.415 80.2823 113.681 84.0802C113.947 87.8782 113.428 91.6902 112.157 95.2791C110.887 98.8681 108.891 102.157 106.295 104.942C103.698 107.726 100.557 109.947 97.0652 111.465C94.2247 112.7 91.2021 113.449 88.1237 113.685C86.9531 113.775 86 114.718 86 115.892Z" fill="#F45252"/>
</svg>
